%TF.GenerationSoftware,KiCad,Pcbnew,8.0.8*%
%TF.CreationDate,2025-03-08T03:29:29+02:00*%
%TF.ProjectId,V2,56322e6b-6963-4616-945f-706362585858,rev?*%
%TF.SameCoordinates,Original*%
%TF.FileFunction,Copper,L1,Top*%
%TF.FilePolarity,Positive*%
%FSLAX46Y46*%
G04 Gerber Fmt 4.6, Leading zero omitted, Abs format (unit mm)*
G04 Created by KiCad (PCBNEW 8.0.8) date 2025-03-08 03:29:29*
%MOMM*%
%LPD*%
G01*
G04 APERTURE LIST*
G04 Aperture macros list*
%AMRoundRect*0 ,Rectangle with rounded corners *0 ,$1 Rounding radius *0 ,$2 $3 $4 $5 $6 $7 $8 $9 X,Y pos of 4 corners *0 ,Add a 4 corners polygon primitive as box body *4,1,4,-0.725,0.6,-0.725,-0.6,
0.725,-0.6,
0.725,0.6,
-0.725,0.6,0.0*0 ,Add four circle primitives for the rounded corners *1,1,0.5,-0.725,0.6*1,1,0.5,-0.725,-0.6*1,1,0.5,0.725,-0.6*1,1,0.5,0.725,0.6*0 ,Add four rect primitives between the rounded corners *20,1,0.5,-0.725,0.6,-0.725,-0.6,0.0*20,1,0.5,-0.725,-0.6,0.725,-0.6,0.0*20,1,0.5,0.725,-0.6,0.725,0.6,0.0*20,1,0.5,0.725,0.6,-0.725,0.6,0.0*%
G04 Aperture macros list end*
%TA.AperFunction,ComponentPad*%
%ADD10O,1.7X1.7*%
%TD*%
%TA.AperFunction,ComponentPad*%
%ADD11R,1.7X1.7*%
%TD*%
%TA.AperFunction,ComponentPad*%
%ADD12RoundRect,0.25X-0.75X0.6X-0.75X-0.6X0.75X-0.6X0.75X0.6X0*%
%TD*%
%TA.AperFunction,ComponentPad*%
%ADD13O,2X1.7*%
%TD*%
%TA.AperFunction,ComponentPad*%
%ADD14RoundRect,0.25X0.725X-0.6X0.725X0.6X-0.725X0.6X-0.725X-0.6X0*%
%TD*%
%TA.AperFunction,ComponentPad*%
%ADD15O,1.95X1.7*%
%TD*%
%TA.AperFunction,ComponentPad*%
%ADD16C,1.6*%
%TD*%
%TA.AperFunction,ComponentPad*%
%ADD17C,2*%
%TD*%
%TA.AperFunction,ComponentPad*%
%ADD18O,1.6X1.6*%
%TD*%
%TA.AperFunction,ComponentPad*%
%ADD19RoundRect,0.25X-0.725X0.6X-0.725X-0.6X0.725X-0.6X0.725X0.6X0*%
%TD*%
%TA.AperFunction,ComponentPad*%
%ADD20R,1.6X1.6*%
%TD*%
%TA.AperFunction,ComponentPad*%
%ADD21R,1.86X1.86*%
%TD*%
%TA.AperFunction,ComponentPad*%
%ADD22C,1.86*%
%TD*%
%TA.AperFunction,ComponentPad*%
%ADD23R,2X4.6*%
%TD*%
%TA.AperFunction,ComponentPad*%
%ADD24O,2X4.2*%
%TD*%
%TA.AperFunction,ComponentPad*%
%ADD25O,4.2X2*%
%TD*%
%TA.AperFunction,Conductor*%
%ADD26C,1.5*%
%TD*%
%TA.AperFunction,Conductor*%
%ADD27C,1*%
%TD*%
%TA.AperFunction,Conductor*%
%ADD28C,0.8*%
%TD*%
G04 APERTURE END LIST*
D10*
X63605000Y52460000D03*
X63605000Y49920000D03*
D11*
X63605000Y47380000D03*
D10*
X63605000Y44840000D03*
X63605000Y42300000D03*
X63605000Y39760000D03*
X63605000Y37220000D03*
D11*
X63605000Y34680000D03*
D10*
X63605000Y32140000D03*
X63605000Y29600000D03*
X63605000Y24520000D03*
D11*
X63605000Y21980000D03*
D10*
X63605000Y19440000D03*
X63605000Y16900000D03*
X63605000Y14360000D03*
X63605000Y11820000D03*
D11*
X63605000Y9280000D03*
D10*
X63605000Y6740000D03*
X63605000Y4200000D03*
X45825000Y4200000D03*
X45825000Y6740000D03*
D11*
X45825000Y9280000D03*
D10*
X45825000Y11820000D03*
X45825000Y14360000D03*
X45825000Y16900000D03*
X45825000Y19440000D03*
D11*
X45825000Y21980000D03*
D10*
X45825000Y24520000D03*
X45825000Y27060000D03*
X45825000Y29600000D03*
X45825000Y32140000D03*
D11*
X45825000Y34680000D03*
D10*
X45825000Y37220000D03*
X45825000Y39760000D03*
X45825000Y42300000D03*
X45825000Y44840000D03*
D11*
X45825000Y47380000D03*
D10*
X45825000Y49920000D03*
X45825000Y52460000D03*
D12*
X4125000Y27460000D03*
D13*
X4125000Y24960000D03*
D11*
X28725000Y29900000D03*
D10*
X28725000Y27360000D03*
X28725000Y24820000D03*
X28725000Y22280000D03*
X28725000Y19740000D03*
X28725000Y17200000D03*
X28725000Y14660000D03*
X28725000Y12120000D03*
X28725000Y9580000D03*
X28725000Y7040000D03*
X28725000Y4500000D03*
D14*
X87025000Y10985000D03*
D15*
X87025000Y13485000D03*
X87025000Y15985000D03*
X87025000Y18485000D03*
D16*
X87125000Y24950000D03*
X87125000Y28450000D03*
D17*
X40975000Y26750000D03*
X34475000Y26750000D03*
X40975000Y22250000D03*
X34475000Y22250000D03*
D12*
X4125000Y17860000D03*
D13*
X4125000Y15360000D03*
D16*
X30175000Y42500000D03*
D18*
X30175000Y50120000D03*
X8515000Y37450000D03*
D16*
X16135000Y37450000D03*
X27075000Y50120000D03*
D18*
X27075000Y42500000D03*
D14*
X87325000Y34640000D03*
D15*
X87325000Y37140000D03*
X87325000Y39640000D03*
X87325000Y42140000D03*
X4325000Y34400000D03*
X4325000Y36900000D03*
D19*
X4325000Y39400000D03*
D20*
X81425000Y47240000D03*
D18*
X81425000Y44700000D03*
X81425000Y42160000D03*
X81425000Y39620000D03*
X81425000Y37080000D03*
X81425000Y34540000D03*
X81425000Y32000000D03*
X81425000Y29460000D03*
X68725000Y29460000D03*
X68725000Y32000000D03*
X68725000Y34540000D03*
X68725000Y37080000D03*
X68725000Y39620000D03*
X68725000Y42160000D03*
X68725000Y44700000D03*
X68725000Y47240000D03*
D21*
X21845000Y44360000D03*
D22*
X21845000Y46900000D03*
X21845000Y49440000D03*
D16*
X35425000Y13680000D03*
X35425000Y17180000D03*
D20*
X81425000Y23560000D03*
D18*
X81425000Y21020000D03*
X81425000Y18480000D03*
X81425000Y15940000D03*
X81425000Y13400000D03*
X81425000Y10860000D03*
X81425000Y8320000D03*
X81425000Y5780000D03*
X68725000Y5780000D03*
X68725000Y8320000D03*
X68725000Y10860000D03*
X68725000Y13400000D03*
X68725000Y15940000D03*
X68725000Y18480000D03*
X68725000Y21020000D03*
X68725000Y23560000D03*
X8505000Y40600000D03*
D16*
X16125000Y40600000D03*
D23*
X16430000Y48605000D03*
D24*
X10130000Y48605000D03*
D25*
X13530000Y53405000D03*
D26*
X19785000Y49440000D02*
X25005000Y54660000D01*
X25005000Y54660000D02*
X78165000Y54660000D01*
X78165000Y54660000D02*
X90525000Y42300000D01*
X90525000Y42300000D02*
X90525000Y21550000D01*
X68725000Y32000000D02*
X68725000Y34500000D01*
X68725000Y34500000D02*
X72325000Y30900000D01*
X72325000Y30900000D02*
X72325000Y26900000D01*
X72325000Y26900000D02*
X72325000Y19540000D01*
X72325000Y19540000D02*
X68725000Y15940000D01*
X68725000Y15940000D02*
X68725000Y18480000D01*
X45825000Y49920000D02*
X49505000Y49920000D01*
X49505000Y49920000D02*
X55825000Y43600000D01*
X63193730Y26900000D02*
X72325000Y26900000D01*
X55825000Y43600000D02*
X55825000Y34268730D01*
X55825000Y34268730D02*
X63193730Y26900000D01*
X25025000Y15700000D02*
X25025000Y6000000D01*
X25025000Y6000000D02*
X25025000Y3500000D01*
D27*
X28725000Y7040000D02*
X26065000Y7040000D01*
X26065000Y7040000D02*
X25025000Y6000000D01*
D26*
X28725000Y17200000D02*
X26525000Y17200000D01*
X26525000Y17200000D02*
X25025000Y15700000D01*
X25025000Y3500000D02*
X26525000Y2000000D01*
X26525000Y2000000D02*
X49325000Y2000000D01*
X49325000Y2000000D02*
X50525000Y2000000D01*
X50525000Y2000000D02*
X50525000Y43251270D01*
X50525000Y43251270D02*
X46396270Y47380000D01*
X46396270Y47380000D02*
X45825000Y47380000D01*
X49325000Y2000000D02*
X69036370Y2000000D01*
X69036370Y2000000D02*
X77825000Y10788630D01*
D27*
X45825000Y14360000D02*
X44465000Y14360000D01*
X38875000Y19950000D02*
X38875000Y31266296D01*
X44465000Y14360000D02*
X38875000Y19950000D01*
X33841296Y36300000D02*
X17285000Y36300000D01*
X38875000Y31266296D02*
X33841296Y36300000D01*
X17285000Y36300000D02*
X16135000Y37450000D01*
X27075000Y50120000D02*
X27075000Y51250000D01*
X27075000Y51250000D02*
X28635000Y52810000D01*
X34615000Y52810000D02*
X37505000Y49920000D01*
X28635000Y52810000D02*
X34615000Y52810000D01*
X37505000Y49920000D02*
X45825000Y49920000D01*
D26*
X45825000Y47380000D02*
X32915000Y47380000D01*
X32915000Y47380000D02*
X30175000Y50120000D01*
D27*
X21845000Y46900000D02*
X23855000Y46900000D01*
X23855000Y46900000D02*
X27075000Y50120000D01*
D26*
X19785000Y49440000D02*
X18950000Y48605000D01*
X18950000Y48605000D02*
X16430000Y48605000D01*
X9395560Y42750000D02*
X16235000Y42750000D01*
X16235000Y42750000D02*
X20385000Y46900000D01*
X20385000Y46900000D02*
X21845000Y46900000D01*
D27*
X27075000Y42500000D02*
X30175000Y42500000D01*
D26*
X10130000Y48605000D02*
X9230000Y48605000D01*
X2000000Y35125000D02*
X2725000Y34400000D01*
X2725000Y34400000D02*
X4325000Y34400000D01*
X9230000Y48605000D02*
X2000000Y41375000D01*
X2000000Y41375000D02*
X2000000Y35125000D01*
D28*
X8505000Y40600000D02*
X8505000Y40480306D01*
X8505000Y40480306D02*
X4924694Y36900000D01*
X4924694Y36900000D02*
X4325000Y36900000D01*
D26*
X4325000Y40500000D02*
X4325000Y39400000D01*
X8515000Y33610000D02*
X7725000Y34400000D01*
X7725000Y34400000D02*
X4325000Y34400000D01*
X8515000Y37450000D02*
X8515000Y33610000D01*
X8515000Y33610000D02*
X9825000Y32300000D01*
X9825000Y32300000D02*
X30825000Y32300000D01*
X30825000Y32300000D02*
X31525000Y31600000D01*
X31525000Y21080000D02*
X35425000Y17180000D01*
X31525000Y31600000D02*
X31525000Y21080000D01*
X35425000Y13680000D02*
X37575000Y15830000D01*
X37575000Y15830000D02*
X37575000Y18070560D01*
X6575000Y42750000D02*
X4325000Y40500000D01*
X37575000Y18070560D02*
X37025000Y18620560D01*
X37025000Y18620560D02*
X37025000Y30500000D01*
X13725000Y34399999D02*
X13725000Y38420560D01*
X37025000Y30500000D02*
X33125001Y34399999D01*
X33125001Y34399999D02*
X13725000Y34399999D01*
X13725000Y38420560D02*
X9395560Y42750000D01*
X9395560Y42750000D02*
X6575000Y42750000D01*
D27*
X16125000Y38950000D02*
X16125000Y37460000D01*
X16125000Y40600000D02*
X16125000Y38950000D01*
D26*
X28725000Y17200000D02*
X35405000Y17200000D01*
X35405000Y17200000D02*
X35425000Y17180000D01*
X28725000Y14660000D02*
X34445000Y14660000D01*
X34445000Y14660000D02*
X35425000Y13680000D01*
D27*
X43565000Y6740000D02*
X41325000Y4500000D01*
X41325000Y4500000D02*
X28725000Y4500000D01*
X44119516Y11820000D02*
X41879516Y9580000D01*
X41879516Y9580000D02*
X28725000Y9580000D01*
X44119516Y11820000D02*
X45825000Y11820000D01*
X43565000Y6740000D02*
X45825000Y6740000D01*
D26*
X28745000Y17180000D02*
X28725000Y17200000D01*
X77825000Y29531370D02*
X77825000Y45400000D01*
X77825000Y45400000D02*
X79665000Y47240000D01*
X79665000Y47240000D02*
X81425000Y47240000D01*
X77825000Y27160000D02*
X77825000Y10788630D01*
X77825000Y10788630D02*
X80293630Y8320000D01*
X80293630Y8320000D02*
X81425000Y8320000D01*
X79275000Y25710000D02*
X77825000Y27160000D01*
X77825000Y27160000D02*
X77825000Y29531370D01*
X77825000Y29531370D02*
X79275000Y30981370D01*
X87125000Y24950000D02*
X90525000Y21550000D01*
X90525000Y21550000D02*
X90525000Y8800000D01*
X90525000Y8800000D02*
X87505000Y5780000D01*
X87505000Y5780000D02*
X81425000Y5780000D01*
X81425000Y23560000D02*
X79275000Y25710000D01*
X79275000Y30981370D02*
X80293630Y32000000D01*
X80293630Y32000000D02*
X81425000Y32000000D01*
X87125000Y28450000D02*
X83575000Y32000000D01*
X83575000Y32000000D02*
X81425000Y32000000D01*
X87125000Y24950000D02*
X85935000Y24950000D01*
X85935000Y24950000D02*
X81425000Y29460000D01*
D27*
X68725000Y29460000D02*
X67593630Y29460000D01*
X67593630Y29460000D02*
X66325000Y30728630D01*
X66325000Y30728630D02*
X66325000Y38100000D01*
X66325000Y38100000D02*
X64665000Y39760000D01*
X64665000Y39760000D02*
X63605000Y39760000D01*
D26*
X68725000Y42160000D02*
X68725000Y32000000D01*
D27*
X68725000Y44700000D02*
X66787742Y44700000D01*
X66787742Y44700000D02*
X64387742Y42300000D01*
X64387742Y42300000D02*
X63605000Y42300000D01*
X68725000Y47240000D02*
X67065000Y47240000D01*
X67065000Y47240000D02*
X64665000Y44840000D01*
X64665000Y44840000D02*
X63605000Y44840000D01*
X68725000Y5780000D02*
X67593630Y5780000D01*
X67593630Y5780000D02*
X65555000Y7818630D01*
X65555000Y7818630D02*
X65555000Y12627717D01*
X65555000Y12627717D02*
X63822717Y14360000D01*
X63822717Y14360000D02*
X63605000Y14360000D01*
X68725000Y21020000D02*
X68177742Y21020000D01*
X68177742Y21020000D02*
X64057742Y16900000D01*
X64057742Y16900000D02*
X63605000Y16900000D01*
X68725000Y23560000D02*
X68455000Y23560000D01*
X68455000Y23560000D02*
X64335000Y19440000D01*
X64335000Y19440000D02*
X63605000Y19440000D01*
D26*
X68725000Y8320000D02*
X68725000Y18480000D01*
X19785000Y49440000D02*
X21845000Y49440000D01*
D27*
X21845000Y44360000D02*
X25885000Y44360000D01*
X25885000Y44360000D02*
X26895000Y43350000D01*
D28*
X45825000Y21980000D02*
X41245000Y21980000D01*
X41245000Y21980000D02*
X40975000Y22250000D01*
X45825000Y27060000D02*
X41285000Y27060000D01*
X41285000Y27060000D02*
X40975000Y26750000D01*
D26*
X81425000Y42160000D02*
X87305000Y42160000D01*
X87305000Y42160000D02*
X87325000Y42140000D01*
X87325000Y39640000D02*
X81445000Y39640000D01*
X81445000Y39640000D02*
X81425000Y39620000D01*
X87265000Y37080000D02*
X87325000Y37140000D01*
X81425000Y37080000D02*
X87265000Y37080000D01*
X81525000Y34640000D02*
X81425000Y34540000D01*
X87325000Y34640000D02*
X81525000Y34640000D01*
X87020000Y18480000D02*
X87025000Y18485000D01*
X81425000Y18480000D02*
X87020000Y18480000D01*
X87025000Y10985000D02*
X81550000Y10985000D01*
X81550000Y10985000D02*
X81425000Y10860000D01*
X87025000Y13485000D02*
X81510000Y13485000D01*
X81510000Y13485000D02*
X81425000Y13400000D01*
X81470000Y15985000D02*
X81425000Y15940000D01*
X87025000Y15985000D02*
X81470000Y15985000D01*
D27*
X28725000Y27360000D02*
X10625000Y27360000D01*
X8225000Y24960000D02*
X4125000Y24960000D01*
X10625000Y27360000D02*
X8225000Y24960000D01*
X13325000Y15360000D02*
X4125000Y15360000D01*
X20245000Y22280000D02*
X13325000Y15360000D01*
X28725000Y22280000D02*
X20245000Y22280000D01*
X6565000Y29900000D02*
X4125000Y27460000D01*
X28725000Y29900000D02*
X6565000Y29900000D01*
X18085000Y24820000D02*
X11125000Y17860000D01*
X11125000Y17860000D02*
X4125000Y17860000D01*
X28725000Y24820000D02*
X18085000Y24820000D01*
M02*
