%TF.GenerationSoftware,KiCad,Pcbnew,8.0.8*%
%TF.CreationDate,2025-03-08T03:29:29+02:00*%
%TF.ProjectId,V2,56322e6b-6963-4616-945f-706362585858,rev?*%
%TF.SameCoordinates,Original*%
%TF.FileFunction,Copper,L1,Top*%
%TF.FilePolarity,Positive*%
%FSLAX46Y46*%
G04 Gerber Fmt 4.6, Leading zero omitted, Abs format (unit mm)*
G04 Created by KiCad (PCBNEW 8.0.8) date 2025-03-08 03:29:29*
%MOMM*%
%LPD*%
G01*
G04 APERTURE LIST*
G04 Aperture macros list*
%AMRoundRect*
0 Rectangle with rounded corners*
0 $1 Rounding radius*
0 $2 $3 $4 $5 $6 $7 $8 $9 X,Y pos of 4 corners*
0 Add a 4 corners polygon primitive as box body*
4,1,4,$2,$3,$4,$5,$6,$7,$8,$9,$2,$3,0*
0 Add four circle primitives for the rounded corners*
1,1,$1+$1,$2,$3*
1,1,$1+$1,$4,$5*
1,1,$1+$1,$6,$7*
1,1,$1+$1,$8,$9*
0 Add four rect primitives between the rounded corners*
20,1,$1+$1,$2,$3,$4,$5,0*
20,1,$1+$1,$4,$5,$6,$7,0*
20,1,$1+$1,$6,$7,$8,$9,0*
20,1,$1+$1,$8,$9,$2,$3,0*%
G04 Aperture macros list end*
%TA.AperFunction,ComponentPad*%
%ADD10O,1.700000X1.700000*%
%TD*%
%TA.AperFunction,ComponentPad*%
%ADD11R,1.700000X1.700000*%
%TD*%
%TA.AperFunction,ComponentPad*%
%ADD12RoundRect,0.250000X-0.750000X0.600000X-0.750000X-0.600000X0.750000X-0.600000X0.750000X0.600000X0*%
%TD*%
%TA.AperFunction,ComponentPad*%
%ADD13O,2.000000X1.700000*%
%TD*%
%TA.AperFunction,ComponentPad*%
%ADD14RoundRect,0.250000X0.725000X-0.600000X0.725000X0.600000X-0.725000X0.600000X-0.725000X-0.600000X0*%
%TD*%
%TA.AperFunction,ComponentPad*%
%ADD15O,1.950000X1.700000*%
%TD*%
%TA.AperFunction,ComponentPad*%
%ADD16C,1.600000*%
%TD*%
%TA.AperFunction,ComponentPad*%
%ADD17C,2.000000*%
%TD*%
%TA.AperFunction,ComponentPad*%
%ADD18O,1.600000X1.600000*%
%TD*%
%TA.AperFunction,ComponentPad*%
%ADD19RoundRect,0.250000X-0.725000X0.600000X-0.725000X-0.600000X0.725000X-0.600000X0.725000X0.600000X0*%
%TD*%
%TA.AperFunction,ComponentPad*%
%ADD20R,1.600000X1.600000*%
%TD*%
%TA.AperFunction,ComponentPad*%
%ADD21R,1.860000X1.860000*%
%TD*%
%TA.AperFunction,ComponentPad*%
%ADD22C,1.860000*%
%TD*%
%TA.AperFunction,ComponentPad*%
%ADD23R,2.000000X4.600000*%
%TD*%
%TA.AperFunction,ComponentPad*%
%ADD24O,2.000000X4.200000*%
%TD*%
%TA.AperFunction,ComponentPad*%
%ADD25O,4.200000X2.000000*%
%TD*%
%TA.AperFunction,Conductor*%
%ADD26C,1.500000*%
%TD*%
%TA.AperFunction,Conductor*%
%ADD27C,1.000000*%
%TD*%
%TA.AperFunction,Conductor*%
%ADD28C,0.800000*%
%TD*%
G04 APERTURE END LIST*
D10*
X109620000Y-68140000D03*
X109620000Y-70680000D03*
D11*
X109620000Y-73220000D03*
D10*
X109620000Y-75760000D03*
X109620000Y-78300000D03*
X109620000Y-80840000D03*
X109620000Y-83380000D03*
D11*
X109620000Y-85920000D03*
D10*
X109620000Y-88460000D03*
X109620000Y-91000000D03*
X109620000Y-96080000D03*
D11*
X109620000Y-98620000D03*
D10*
X109620000Y-101160000D03*
X109620000Y-103700000D03*
X109620000Y-106240000D03*
X109620000Y-108780000D03*
D11*
X109620000Y-111320000D03*
D10*
X109620000Y-113860000D03*
X109620000Y-116400000D03*
X127400000Y-116400000D03*
X127400000Y-113860000D03*
D11*
X127400000Y-111320000D03*
D10*
X127400000Y-108780000D03*
X127400000Y-106240000D03*
X127400000Y-103700000D03*
X127400000Y-101160000D03*
D11*
X127400000Y-98620000D03*
D10*
X127400000Y-96080000D03*
X127400000Y-93540000D03*
X127400000Y-91000000D03*
X127400000Y-88460000D03*
D11*
X127400000Y-85920000D03*
D10*
X127400000Y-83380000D03*
X127400000Y-80840000D03*
X127400000Y-78300000D03*
X127400000Y-75760000D03*
D11*
X127400000Y-73220000D03*
D10*
X127400000Y-70680000D03*
X127400000Y-68140000D03*
D12*
X169100000Y-93140000D03*
D13*
X169100000Y-95640000D03*
D11*
X144500000Y-90700000D03*
D10*
X144500000Y-93240000D03*
X144500000Y-95780000D03*
X144500000Y-98320000D03*
X144500000Y-100860000D03*
X144500000Y-103400000D03*
X144500000Y-105940000D03*
X144500000Y-108480000D03*
X144500000Y-111020000D03*
X144500000Y-113560000D03*
X144500000Y-116100000D03*
D14*
X86200000Y-109615000D03*
D15*
X86200000Y-107115000D03*
X86200000Y-104615000D03*
X86200000Y-102115000D03*
D16*
X86100000Y-95650000D03*
X86100000Y-92150000D03*
D17*
X132250000Y-93850000D03*
X138750000Y-93850000D03*
X132250000Y-98350000D03*
X138750000Y-98350000D03*
D12*
X169100000Y-102740000D03*
D13*
X169100000Y-105240000D03*
D16*
X143050000Y-78100000D03*
D18*
X143050000Y-70480000D03*
X164710000Y-83150000D03*
D16*
X157090000Y-83150000D03*
X146150000Y-70480000D03*
D18*
X146150000Y-78100000D03*
D14*
X85900000Y-85960000D03*
D15*
X85900000Y-83460000D03*
X85900000Y-80960000D03*
X85900000Y-78460000D03*
X168900000Y-86200000D03*
X168900000Y-83700000D03*
D19*
X168900000Y-81200000D03*
D20*
X91800000Y-73360000D03*
D18*
X91800000Y-75900000D03*
X91800000Y-78440000D03*
X91800000Y-80980000D03*
X91800000Y-83520000D03*
X91800000Y-86060000D03*
X91800000Y-88600000D03*
X91800000Y-91140000D03*
X104500000Y-91140000D03*
X104500000Y-88600000D03*
X104500000Y-86060000D03*
X104500000Y-83520000D03*
X104500000Y-80980000D03*
X104500000Y-78440000D03*
X104500000Y-75900000D03*
X104500000Y-73360000D03*
D21*
X151380000Y-76240000D03*
D22*
X151380000Y-73700000D03*
X151380000Y-71160000D03*
D16*
X137800000Y-106920000D03*
X137800000Y-103420000D03*
D20*
X91800000Y-97040000D03*
D18*
X91800000Y-99580000D03*
X91800000Y-102120000D03*
X91800000Y-104660000D03*
X91800000Y-107200000D03*
X91800000Y-109740000D03*
X91800000Y-112280000D03*
X91800000Y-114820000D03*
X104500000Y-114820000D03*
X104500000Y-112280000D03*
X104500000Y-109740000D03*
X104500000Y-107200000D03*
X104500000Y-104660000D03*
X104500000Y-102120000D03*
X104500000Y-99580000D03*
X104500000Y-97040000D03*
X164720000Y-80000000D03*
D16*
X157100000Y-80000000D03*
D23*
X156795000Y-71995000D03*
D24*
X163095000Y-71995000D03*
D25*
X159695000Y-67195000D03*
D26*
X153440000Y-71160000D02*
X148220000Y-65940000D01*
X148220000Y-65940000D02*
X95060000Y-65940000D01*
X95060000Y-65940000D02*
X82700000Y-78300000D01*
X82700000Y-78300000D02*
X82700000Y-99050000D01*
X104500000Y-88600000D02*
X104500000Y-86100000D01*
X104500000Y-86100000D02*
X100900000Y-89700000D01*
X100900000Y-89700000D02*
X100900000Y-93700000D01*
X100900000Y-93700000D02*
X100900000Y-101060000D01*
X100900000Y-101060000D02*
X104500000Y-104660000D01*
X104500000Y-104660000D02*
X104500000Y-102120000D01*
X127400000Y-70680000D02*
X123720000Y-70680000D01*
X123720000Y-70680000D02*
X117400000Y-77000000D01*
X110031270Y-93700000D02*
X100900000Y-93700000D01*
X117400000Y-77000000D02*
X117400000Y-86331270D01*
X117400000Y-86331270D02*
X110031270Y-93700000D01*
X148200000Y-104900000D02*
X148200000Y-114600000D01*
X148200000Y-114600000D02*
X148200000Y-117100000D01*
D27*
X144500000Y-113560000D02*
X147160000Y-113560000D01*
X147160000Y-113560000D02*
X148200000Y-114600000D01*
D26*
X144500000Y-103400000D02*
X146700000Y-103400000D01*
X146700000Y-103400000D02*
X148200000Y-104900000D01*
X148200000Y-117100000D02*
X146700000Y-118600000D01*
X146700000Y-118600000D02*
X123900000Y-118600000D01*
X123900000Y-118600000D02*
X122700000Y-118600000D01*
X122700000Y-118600000D02*
X122700000Y-77348730D01*
X122700000Y-77348730D02*
X126828730Y-73220000D01*
X126828730Y-73220000D02*
X127400000Y-73220000D01*
X123900000Y-118600000D02*
X104188630Y-118600000D01*
X104188630Y-118600000D02*
X95400000Y-109811370D01*
D27*
X127400000Y-106240000D02*
X128760000Y-106240000D01*
X134350000Y-100650000D02*
X134350000Y-89333704D01*
X128760000Y-106240000D02*
X134350000Y-100650000D01*
X139383704Y-84300000D02*
X155940000Y-84300000D01*
X134350000Y-89333704D02*
X139383704Y-84300000D01*
X155940000Y-84300000D02*
X157090000Y-83150000D01*
X146150000Y-70480000D02*
X146150000Y-69350000D01*
X146150000Y-69350000D02*
X144590000Y-67790000D01*
X138610000Y-67790000D02*
X135720000Y-70680000D01*
X144590000Y-67790000D02*
X138610000Y-67790000D01*
X135720000Y-70680000D02*
X127400000Y-70680000D01*
D26*
X127400000Y-73220000D02*
X140310000Y-73220000D01*
X140310000Y-73220000D02*
X143050000Y-70480000D01*
D27*
X151380000Y-73700000D02*
X149370000Y-73700000D01*
X149370000Y-73700000D02*
X146150000Y-70480000D01*
D26*
X153440000Y-71160000D02*
X154275000Y-71995000D01*
X154275000Y-71995000D02*
X156795000Y-71995000D01*
X163829440Y-77850000D02*
X156990000Y-77850000D01*
X156990000Y-77850000D02*
X152840000Y-73700000D01*
X152840000Y-73700000D02*
X151380000Y-73700000D01*
D27*
X146150000Y-78100000D02*
X143050000Y-78100000D01*
D26*
X163095000Y-71995000D02*
X163995000Y-71995000D01*
X171225000Y-85475000D02*
X170500000Y-86200000D01*
X170500000Y-86200000D02*
X168900000Y-86200000D01*
X163995000Y-71995000D02*
X171225000Y-79225000D01*
X171225000Y-79225000D02*
X171225000Y-85475000D01*
D28*
X164720000Y-80000000D02*
X164720000Y-80119694D01*
X164720000Y-80119694D02*
X168300306Y-83700000D01*
X168300306Y-83700000D02*
X168900000Y-83700000D01*
D26*
X168900000Y-80100000D02*
X168900000Y-81200000D01*
X164710000Y-86990000D02*
X165500000Y-86200000D01*
X165500000Y-86200000D02*
X168900000Y-86200000D01*
X164710000Y-83150000D02*
X164710000Y-86990000D01*
X164710000Y-86990000D02*
X163400000Y-88300000D01*
X163400000Y-88300000D02*
X142400000Y-88300000D01*
X142400000Y-88300000D02*
X141700000Y-89000000D01*
X141700000Y-99520000D02*
X137800000Y-103420000D01*
X141700000Y-89000000D02*
X141700000Y-99520000D01*
X137800000Y-106920000D02*
X135650000Y-104770000D01*
X135650000Y-104770000D02*
X135650000Y-102529440D01*
X166650000Y-77850000D02*
X168900000Y-80100000D01*
X135650000Y-102529440D02*
X136200000Y-101979440D01*
X136200000Y-101979440D02*
X136200000Y-90100000D01*
X159500000Y-86200001D02*
X159500000Y-82179440D01*
X136200000Y-90100000D02*
X140099999Y-86200001D01*
X140099999Y-86200001D02*
X159500000Y-86200001D01*
X159500000Y-82179440D02*
X163829440Y-77850000D01*
X163829440Y-77850000D02*
X166650000Y-77850000D01*
D27*
X157100000Y-81650000D02*
X157100000Y-83140000D01*
X157100000Y-80000000D02*
X157100000Y-81650000D01*
D26*
X144500000Y-103400000D02*
X137820000Y-103400000D01*
X137820000Y-103400000D02*
X137800000Y-103420000D01*
X144500000Y-105940000D02*
X138780000Y-105940000D01*
X138780000Y-105940000D02*
X137800000Y-106920000D01*
D27*
X129660000Y-113860000D02*
X131900000Y-116100000D01*
X131900000Y-116100000D02*
X144500000Y-116100000D01*
X129105484Y-108780000D02*
X131345484Y-111020000D01*
X131345484Y-111020000D02*
X144500000Y-111020000D01*
X129105484Y-108780000D02*
X127400000Y-108780000D01*
X129660000Y-113860000D02*
X127400000Y-113860000D01*
D26*
X144480000Y-103420000D02*
X144500000Y-103400000D01*
X95400000Y-91068630D02*
X95400000Y-75200000D01*
X95400000Y-75200000D02*
X93560000Y-73360000D01*
X93560000Y-73360000D02*
X91800000Y-73360000D01*
X95400000Y-93440000D02*
X95400000Y-109811370D01*
X95400000Y-109811370D02*
X92931370Y-112280000D01*
X92931370Y-112280000D02*
X91800000Y-112280000D01*
X93950000Y-94890000D02*
X95400000Y-93440000D01*
X95400000Y-93440000D02*
X95400000Y-91068630D01*
X95400000Y-91068630D02*
X93950000Y-89618630D01*
X86100000Y-95650000D02*
X82700000Y-99050000D01*
X82700000Y-99050000D02*
X82700000Y-111800000D01*
X82700000Y-111800000D02*
X85720000Y-114820000D01*
X85720000Y-114820000D02*
X91800000Y-114820000D01*
X91800000Y-97040000D02*
X93950000Y-94890000D01*
X93950000Y-89618630D02*
X92931370Y-88600000D01*
X92931370Y-88600000D02*
X91800000Y-88600000D01*
X86100000Y-92150000D02*
X89650000Y-88600000D01*
X89650000Y-88600000D02*
X91800000Y-88600000D01*
X86100000Y-95650000D02*
X87290000Y-95650000D01*
X87290000Y-95650000D02*
X91800000Y-91140000D01*
D27*
X104500000Y-91140000D02*
X105631370Y-91140000D01*
X105631370Y-91140000D02*
X106900000Y-89871370D01*
X106900000Y-89871370D02*
X106900000Y-82500000D01*
X106900000Y-82500000D02*
X108560000Y-80840000D01*
X108560000Y-80840000D02*
X109620000Y-80840000D01*
D26*
X104500000Y-78440000D02*
X104500000Y-88600000D01*
D27*
X104500000Y-75900000D02*
X106437258Y-75900000D01*
X106437258Y-75900000D02*
X108837258Y-78300000D01*
X108837258Y-78300000D02*
X109620000Y-78300000D01*
X104500000Y-73360000D02*
X106160000Y-73360000D01*
X106160000Y-73360000D02*
X108560000Y-75760000D01*
X108560000Y-75760000D02*
X109620000Y-75760000D01*
X104500000Y-114820000D02*
X105631370Y-114820000D01*
X105631370Y-114820000D02*
X107670000Y-112781370D01*
X107670000Y-112781370D02*
X107670000Y-107972283D01*
X107670000Y-107972283D02*
X109402283Y-106240000D01*
X109402283Y-106240000D02*
X109620000Y-106240000D01*
X104500000Y-99580000D02*
X105047258Y-99580000D01*
X105047258Y-99580000D02*
X109167258Y-103700000D01*
X109167258Y-103700000D02*
X109620000Y-103700000D01*
X104500000Y-97040000D02*
X104770000Y-97040000D01*
X104770000Y-97040000D02*
X108890000Y-101160000D01*
X108890000Y-101160000D02*
X109620000Y-101160000D01*
D26*
X104500000Y-112280000D02*
X104500000Y-102120000D01*
X153440000Y-71160000D02*
X151380000Y-71160000D01*
D27*
X151380000Y-76240000D02*
X147340000Y-76240000D01*
X147340000Y-76240000D02*
X146330000Y-77250000D01*
D28*
X127400000Y-98620000D02*
X131980000Y-98620000D01*
X131980000Y-98620000D02*
X132250000Y-98350000D01*
X127400000Y-93540000D02*
X131940000Y-93540000D01*
X131940000Y-93540000D02*
X132250000Y-93850000D01*
D26*
X91800000Y-78440000D02*
X85920000Y-78440000D01*
X85920000Y-78440000D02*
X85900000Y-78460000D01*
X85900000Y-80960000D02*
X91780000Y-80960000D01*
X91780000Y-80960000D02*
X91800000Y-80980000D01*
X85960000Y-83520000D02*
X85900000Y-83460000D01*
X91800000Y-83520000D02*
X85960000Y-83520000D01*
X91700000Y-85960000D02*
X91800000Y-86060000D01*
X85900000Y-85960000D02*
X91700000Y-85960000D01*
X86205000Y-102120000D02*
X86200000Y-102115000D01*
X91800000Y-102120000D02*
X86205000Y-102120000D01*
X86200000Y-109615000D02*
X91675000Y-109615000D01*
X91675000Y-109615000D02*
X91800000Y-109740000D01*
X86200000Y-107115000D02*
X91715000Y-107115000D01*
X91715000Y-107115000D02*
X91800000Y-107200000D01*
X91755000Y-104615000D02*
X91800000Y-104660000D01*
X86200000Y-104615000D02*
X91755000Y-104615000D01*
D27*
X144500000Y-93240000D02*
X162600000Y-93240000D01*
X165000000Y-95640000D02*
X169100000Y-95640000D01*
X162600000Y-93240000D02*
X165000000Y-95640000D01*
X159900000Y-105240000D02*
X169100000Y-105240000D01*
X152980000Y-98320000D02*
X159900000Y-105240000D01*
X144500000Y-98320000D02*
X152980000Y-98320000D01*
X166660000Y-90700000D02*
X169100000Y-93140000D01*
X144500000Y-90700000D02*
X166660000Y-90700000D01*
X155140000Y-95780000D02*
X162100000Y-102740000D01*
X162100000Y-102740000D02*
X169100000Y-102740000D01*
X144500000Y-95780000D02*
X155140000Y-95780000D01*
M02*
