%TF.GenerationSoftware,KiCad,Pcbnew,8.0.8*%
%TF.CreationDate,2025-03-08T03:31:25+02:00*%
%TF.ProjectId,station_circuit,73746174-696f-46e5-9f63-697263756974,rev?*%
%TF.SameCoordinates,Original*%
%TF.FileFunction,Plated,1,2,PTH,Mixed*%
%TF.FilePolarity,Positive*%
%FSLAX46Y46*%
G04 Gerber Fmt 4.6, Leading zero omitted, Abs format (unit mm)*
G04 Created by KiCad (PCBNEW 8.0.8) date 2025-03-08 03:31:25*
%MOMM*%
%LPD*%
G01*
G04 APERTURE LIST*
%TA.AperFunction,ComponentDrill*%
%ADD10C,0.800000*%
%TD*%
%TA.AperFunction,ComponentDrill*%
%ADD11C,1.000000*%
%TD*%
G04 aperture for slot hole*
%TA.AperFunction,ComponentDrill*%
%ADD12C,1.000000*%
%TD*%
%TA.AperFunction,ComponentDrill*%
%ADD13C,1.020000*%
%TD*%
%TA.AperFunction,ComponentDrill*%
%ADD14C,1.100000*%
%TD*%
%TA.AperFunction,ComponentDrill*%
%ADD15C,1.240000*%
%TD*%
G04 APERTURE END LIST*
D10*
%TO.C,R1*%
X149110000Y-89750000D03*
%TO.C,R2*%
X149120000Y-92950000D03*
%TO.C,R1*%
X156730000Y-89750000D03*
%TO.C,R2*%
X156740000Y-92950000D03*
D11*
%TO.C,button1*%
X110100000Y-74800000D03*
%TO.C,button2*%
X110100000Y-80650000D03*
%TO.C,button3*%
X110100000Y-86500000D03*
%TO.C,button4*%
X110100000Y-92350000D03*
%TO.C,button5*%
X110100000Y-98200000D03*
%TO.C,button6*%
X110100000Y-104050000D03*
%TO.C,button7*%
X110100000Y-109900000D03*
%TO.C,button8*%
X110100000Y-115750000D03*
%TO.C,button9*%
X110100000Y-121600000D03*
%TO.C,button1*%
X112600000Y-74800000D03*
%TO.C,button2*%
X112600000Y-80650000D03*
%TO.C,button3*%
X112600000Y-86500000D03*
%TO.C,button4*%
X112600000Y-92350000D03*
%TO.C,button5*%
X112600000Y-98200000D03*
%TO.C,button6*%
X112600000Y-104050000D03*
%TO.C,button7*%
X112600000Y-109900000D03*
%TO.C,button8*%
X112600000Y-115750000D03*
%TO.C,button9*%
X112600000Y-121600000D03*
%TO.C,U2*%
X149460000Y-109830000D03*
X149460000Y-112370000D03*
X149460000Y-114910000D03*
X149460000Y-117450000D03*
X152000000Y-109830000D03*
X152000000Y-112370000D03*
X152000000Y-114910000D03*
X152000000Y-117450000D03*
D12*
%TO.C,J1*%
X160200000Y-81500000D02*
X160200000Y-83700000D01*
D11*
%TO.C,SW1*%
X161075000Y-104100000D03*
X163615000Y-104100000D03*
D12*
%TO.C,J1*%
X163900000Y-79200000D02*
X166100000Y-79200000D01*
X163700000Y-85500000D02*
X166300000Y-85500000D01*
D11*
%TO.C,SW1*%
X166155000Y-104100000D03*
D13*
%TO.C,U1*%
X124105000Y-74335000D03*
X124105000Y-76875000D03*
X124105000Y-79415000D03*
X124105000Y-81955000D03*
X124105000Y-84495000D03*
X124105000Y-87035000D03*
X124105000Y-89575000D03*
X124105000Y-92115000D03*
X124105000Y-94655000D03*
X124105000Y-97195000D03*
X124105000Y-99735000D03*
X124105000Y-102275000D03*
X124105000Y-104815000D03*
X124105000Y-107355000D03*
X124105000Y-109895000D03*
X124105000Y-112435000D03*
X124105000Y-114975000D03*
X124105000Y-117515000D03*
X124105000Y-120055000D03*
X124105000Y-122595000D03*
X141885000Y-74335000D03*
X141885000Y-76875000D03*
X141885000Y-79415000D03*
X141885000Y-81955000D03*
X141885000Y-84495000D03*
X141885000Y-87035000D03*
X141885000Y-89575000D03*
X141885000Y-92115000D03*
X141885000Y-94655000D03*
X141885000Y-97195000D03*
X141885000Y-99735000D03*
X141885000Y-102275000D03*
X141885000Y-104815000D03*
X141885000Y-107355000D03*
X141885000Y-109895000D03*
X141885000Y-112435000D03*
X141885000Y-114975000D03*
X141885000Y-117515000D03*
X141885000Y-120055000D03*
X141885000Y-122595000D03*
D14*
%TO.C,D1*%
X147890000Y-76950000D03*
%TO.C,SW2*%
X150000000Y-100000000D03*
X150000000Y-104500000D03*
X156500000Y-100000000D03*
X156500000Y-104500000D03*
%TO.C,D1*%
X158050000Y-76950000D03*
D15*
%TO.C,U3*%
X150550000Y-85940000D03*
X153090000Y-85940000D03*
X155630000Y-85940000D03*
M02*
