%TF.GenerationSoftware,KiCad,Pcbnew,8.0.8*%
%TF.CreationDate,2025-03-08T03:31:29+02:00*%
%TF.ProjectId,station_circuit,73746174-696f-46e5-9f63-697263756974,rev?*%
%TF.SameCoordinates,Original*%
%TF.FileFunction,Drillmap*%
%TF.FilePolarity,Positive*%
%FSLAX45Y45*%
G04 Gerber Fmt 4.5, Leading zero omitted, Abs format (unit mm)*
G04 Created by KiCad (PCBNEW 8.0.8) date 2025-03-08 03:31:29*
%MOMM*%
%LPD*%
G01*
G04 APERTURE LIST*
%ADD10C,0.050000*%
%ADD11C,0.200000*%
%ADD12C,0.320000*%
G04 APERTURE END LIST*
D10*
X10660000Y-7090000D02*
X17740000Y-7090000D01*
X17740000Y-12680000D01*
X10660000Y-12680000D01*
X10660000Y-7090000D01*
D11*
D12*
X12750000Y-7530000D02*
X13070000Y-7850000D01*
X13070000Y-7530000D02*
X12750000Y-7850000D01*
X12760000Y-11990000D02*
X13080000Y-12310000D01*
X13080000Y-11990000D02*
X12760000Y-12310000D01*
X17040000Y-11990000D02*
X17360000Y-12310000D01*
X17360000Y-11990000D02*
X17040000Y-12310000D01*
D11*
X10918277Y-12993984D02*
X10918277Y-12793984D01*
X10918277Y-12793984D02*
X10965896Y-12793984D01*
X10965896Y-12793984D02*
X10994467Y-12803508D01*
X10994467Y-12803508D02*
X11013515Y-12822555D01*
X11013515Y-12822555D02*
X11023039Y-12841603D01*
X11023039Y-12841603D02*
X11032563Y-12879698D01*
X11032563Y-12879698D02*
X11032563Y-12908269D01*
X11032563Y-12908269D02*
X11023039Y-12946365D01*
X11023039Y-12946365D02*
X11013515Y-12965412D01*
X11013515Y-12965412D02*
X10994467Y-12984460D01*
X10994467Y-12984460D02*
X10965896Y-12993984D01*
X10965896Y-12993984D02*
X10918277Y-12993984D01*
X11118277Y-12993984D02*
X11118277Y-12860650D01*
X11118277Y-12898746D02*
X11127801Y-12879698D01*
X11127801Y-12879698D02*
X11137324Y-12870174D01*
X11137324Y-12870174D02*
X11156372Y-12860650D01*
X11156372Y-12860650D02*
X11175420Y-12860650D01*
X11242086Y-12993984D02*
X11242086Y-12860650D01*
X11242086Y-12793984D02*
X11232562Y-12803508D01*
X11232562Y-12803508D02*
X11242086Y-12813031D01*
X11242086Y-12813031D02*
X11251610Y-12803508D01*
X11251610Y-12803508D02*
X11242086Y-12793984D01*
X11242086Y-12793984D02*
X11242086Y-12813031D01*
X11365896Y-12993984D02*
X11346848Y-12984460D01*
X11346848Y-12984460D02*
X11337324Y-12965412D01*
X11337324Y-12965412D02*
X11337324Y-12793984D01*
X11470658Y-12993984D02*
X11451610Y-12984460D01*
X11451610Y-12984460D02*
X11442086Y-12965412D01*
X11442086Y-12965412D02*
X11442086Y-12793984D01*
X11699229Y-12993984D02*
X11699229Y-12793984D01*
X11699229Y-12793984D02*
X11765896Y-12936841D01*
X11765896Y-12936841D02*
X11832562Y-12793984D01*
X11832562Y-12793984D02*
X11832562Y-12993984D01*
X12013515Y-12993984D02*
X12013515Y-12889222D01*
X12013515Y-12889222D02*
X12003991Y-12870174D01*
X12003991Y-12870174D02*
X11984943Y-12860650D01*
X11984943Y-12860650D02*
X11946848Y-12860650D01*
X11946848Y-12860650D02*
X11927801Y-12870174D01*
X12013515Y-12984460D02*
X11994467Y-12993984D01*
X11994467Y-12993984D02*
X11946848Y-12993984D01*
X11946848Y-12993984D02*
X11927801Y-12984460D01*
X11927801Y-12984460D02*
X11918277Y-12965412D01*
X11918277Y-12965412D02*
X11918277Y-12946365D01*
X11918277Y-12946365D02*
X11927801Y-12927317D01*
X11927801Y-12927317D02*
X11946848Y-12917793D01*
X11946848Y-12917793D02*
X11994467Y-12917793D01*
X11994467Y-12917793D02*
X12013515Y-12908269D01*
X12108753Y-12860650D02*
X12108753Y-13060650D01*
X12108753Y-12870174D02*
X12127801Y-12860650D01*
X12127801Y-12860650D02*
X12165896Y-12860650D01*
X12165896Y-12860650D02*
X12184943Y-12870174D01*
X12184943Y-12870174D02*
X12194467Y-12879698D01*
X12194467Y-12879698D02*
X12203991Y-12898746D01*
X12203991Y-12898746D02*
X12203991Y-12955888D01*
X12203991Y-12955888D02*
X12194467Y-12974936D01*
X12194467Y-12974936D02*
X12184943Y-12984460D01*
X12184943Y-12984460D02*
X12165896Y-12993984D01*
X12165896Y-12993984D02*
X12127801Y-12993984D01*
X12127801Y-12993984D02*
X12108753Y-12984460D01*
X12289705Y-12974936D02*
X12299229Y-12984460D01*
X12299229Y-12984460D02*
X12289705Y-12993984D01*
X12289705Y-12993984D02*
X12280182Y-12984460D01*
X12280182Y-12984460D02*
X12289705Y-12974936D01*
X12289705Y-12974936D02*
X12289705Y-12993984D01*
X12289705Y-12870174D02*
X12299229Y-12879698D01*
X12299229Y-12879698D02*
X12289705Y-12889222D01*
X12289705Y-12889222D02*
X12280182Y-12879698D01*
X12280182Y-12879698D02*
X12289705Y-12870174D01*
X12289705Y-12870174D02*
X12289705Y-12889222D01*
X10457500Y-13222500D02*
X10657500Y-13422500D01*
X10657500Y-13222500D02*
X10457500Y-13422500D01*
X10899229Y-13213984D02*
X11023039Y-13213984D01*
X11023039Y-13213984D02*
X10956372Y-13290174D01*
X10956372Y-13290174D02*
X10984944Y-13290174D01*
X10984944Y-13290174D02*
X11003991Y-13299698D01*
X11003991Y-13299698D02*
X11013515Y-13309222D01*
X11013515Y-13309222D02*
X11023039Y-13328269D01*
X11023039Y-13328269D02*
X11023039Y-13375888D01*
X11023039Y-13375888D02*
X11013515Y-13394936D01*
X11013515Y-13394936D02*
X11003991Y-13404460D01*
X11003991Y-13404460D02*
X10984944Y-13413984D01*
X10984944Y-13413984D02*
X10927801Y-13413984D01*
X10927801Y-13413984D02*
X10908753Y-13404460D01*
X10908753Y-13404460D02*
X10899229Y-13394936D01*
X11108753Y-13394936D02*
X11118277Y-13404460D01*
X11118277Y-13404460D02*
X11108753Y-13413984D01*
X11108753Y-13413984D02*
X11099229Y-13404460D01*
X11099229Y-13404460D02*
X11108753Y-13394936D01*
X11108753Y-13394936D02*
X11108753Y-13413984D01*
X11194467Y-13233031D02*
X11203991Y-13223508D01*
X11203991Y-13223508D02*
X11223039Y-13213984D01*
X11223039Y-13213984D02*
X11270658Y-13213984D01*
X11270658Y-13213984D02*
X11289705Y-13223508D01*
X11289705Y-13223508D02*
X11299229Y-13233031D01*
X11299229Y-13233031D02*
X11308753Y-13252079D01*
X11308753Y-13252079D02*
X11308753Y-13271127D01*
X11308753Y-13271127D02*
X11299229Y-13299698D01*
X11299229Y-13299698D02*
X11184943Y-13413984D01*
X11184943Y-13413984D02*
X11308753Y-13413984D01*
X11432562Y-13213984D02*
X11451610Y-13213984D01*
X11451610Y-13213984D02*
X11470658Y-13223508D01*
X11470658Y-13223508D02*
X11480182Y-13233031D01*
X11480182Y-13233031D02*
X11489705Y-13252079D01*
X11489705Y-13252079D02*
X11499229Y-13290174D01*
X11499229Y-13290174D02*
X11499229Y-13337793D01*
X11499229Y-13337793D02*
X11489705Y-13375888D01*
X11489705Y-13375888D02*
X11480182Y-13394936D01*
X11480182Y-13394936D02*
X11470658Y-13404460D01*
X11470658Y-13404460D02*
X11451610Y-13413984D01*
X11451610Y-13413984D02*
X11432562Y-13413984D01*
X11432562Y-13413984D02*
X11413515Y-13404460D01*
X11413515Y-13404460D02*
X11403991Y-13394936D01*
X11403991Y-13394936D02*
X11394467Y-13375888D01*
X11394467Y-13375888D02*
X11384943Y-13337793D01*
X11384943Y-13337793D02*
X11384943Y-13290174D01*
X11384943Y-13290174D02*
X11394467Y-13252079D01*
X11394467Y-13252079D02*
X11403991Y-13233031D01*
X11403991Y-13233031D02*
X11413515Y-13223508D01*
X11413515Y-13223508D02*
X11432562Y-13213984D01*
X11623039Y-13213984D02*
X11642086Y-13213984D01*
X11642086Y-13213984D02*
X11661134Y-13223508D01*
X11661134Y-13223508D02*
X11670658Y-13233031D01*
X11670658Y-13233031D02*
X11680182Y-13252079D01*
X11680182Y-13252079D02*
X11689705Y-13290174D01*
X11689705Y-13290174D02*
X11689705Y-13337793D01*
X11689705Y-13337793D02*
X11680182Y-13375888D01*
X11680182Y-13375888D02*
X11670658Y-13394936D01*
X11670658Y-13394936D02*
X11661134Y-13404460D01*
X11661134Y-13404460D02*
X11642086Y-13413984D01*
X11642086Y-13413984D02*
X11623039Y-13413984D01*
X11623039Y-13413984D02*
X11603991Y-13404460D01*
X11603991Y-13404460D02*
X11594467Y-13394936D01*
X11594467Y-13394936D02*
X11584943Y-13375888D01*
X11584943Y-13375888D02*
X11575420Y-13337793D01*
X11575420Y-13337793D02*
X11575420Y-13290174D01*
X11575420Y-13290174D02*
X11584943Y-13252079D01*
X11584943Y-13252079D02*
X11594467Y-13233031D01*
X11594467Y-13233031D02*
X11603991Y-13223508D01*
X11603991Y-13223508D02*
X11623039Y-13213984D01*
X11775420Y-13413984D02*
X11775420Y-13280650D01*
X11775420Y-13299698D02*
X11784943Y-13290174D01*
X11784943Y-13290174D02*
X11803991Y-13280650D01*
X11803991Y-13280650D02*
X11832563Y-13280650D01*
X11832563Y-13280650D02*
X11851610Y-13290174D01*
X11851610Y-13290174D02*
X11861134Y-13309222D01*
X11861134Y-13309222D02*
X11861134Y-13413984D01*
X11861134Y-13309222D02*
X11870658Y-13290174D01*
X11870658Y-13290174D02*
X11889705Y-13280650D01*
X11889705Y-13280650D02*
X11918277Y-13280650D01*
X11918277Y-13280650D02*
X11937324Y-13290174D01*
X11937324Y-13290174D02*
X11946848Y-13309222D01*
X11946848Y-13309222D02*
X11946848Y-13413984D01*
X12042086Y-13413984D02*
X12042086Y-13280650D01*
X12042086Y-13299698D02*
X12051610Y-13290174D01*
X12051610Y-13290174D02*
X12070658Y-13280650D01*
X12070658Y-13280650D02*
X12099229Y-13280650D01*
X12099229Y-13280650D02*
X12118277Y-13290174D01*
X12118277Y-13290174D02*
X12127801Y-13309222D01*
X12127801Y-13309222D02*
X12127801Y-13413984D01*
X12127801Y-13309222D02*
X12137324Y-13290174D01*
X12137324Y-13290174D02*
X12156372Y-13280650D01*
X12156372Y-13280650D02*
X12184943Y-13280650D01*
X12184943Y-13280650D02*
X12203991Y-13290174D01*
X12203991Y-13290174D02*
X12213515Y-13309222D01*
X12213515Y-13309222D02*
X12213515Y-13413984D01*
X12603991Y-13204460D02*
X12432563Y-13461603D01*
X12861134Y-13213984D02*
X12880182Y-13213984D01*
X12880182Y-13213984D02*
X12899229Y-13223508D01*
X12899229Y-13223508D02*
X12908753Y-13233031D01*
X12908753Y-13233031D02*
X12918277Y-13252079D01*
X12918277Y-13252079D02*
X12927801Y-13290174D01*
X12927801Y-13290174D02*
X12927801Y-13337793D01*
X12927801Y-13337793D02*
X12918277Y-13375888D01*
X12918277Y-13375888D02*
X12908753Y-13394936D01*
X12908753Y-13394936D02*
X12899229Y-13404460D01*
X12899229Y-13404460D02*
X12880182Y-13413984D01*
X12880182Y-13413984D02*
X12861134Y-13413984D01*
X12861134Y-13413984D02*
X12842086Y-13404460D01*
X12842086Y-13404460D02*
X12832563Y-13394936D01*
X12832563Y-13394936D02*
X12823039Y-13375888D01*
X12823039Y-13375888D02*
X12813515Y-13337793D01*
X12813515Y-13337793D02*
X12813515Y-13290174D01*
X12813515Y-13290174D02*
X12823039Y-13252079D01*
X12823039Y-13252079D02*
X12832563Y-13233031D01*
X12832563Y-13233031D02*
X12842086Y-13223508D01*
X12842086Y-13223508D02*
X12861134Y-13213984D01*
X13013515Y-13394936D02*
X13023039Y-13404460D01*
X13023039Y-13404460D02*
X13013515Y-13413984D01*
X13013515Y-13413984D02*
X13003991Y-13404460D01*
X13003991Y-13404460D02*
X13013515Y-13394936D01*
X13013515Y-13394936D02*
X13013515Y-13413984D01*
X13213515Y-13413984D02*
X13099229Y-13413984D01*
X13156372Y-13413984D02*
X13156372Y-13213984D01*
X13156372Y-13213984D02*
X13137325Y-13242555D01*
X13137325Y-13242555D02*
X13118277Y-13261603D01*
X13118277Y-13261603D02*
X13099229Y-13271127D01*
X13289706Y-13233031D02*
X13299229Y-13223508D01*
X13299229Y-13223508D02*
X13318277Y-13213984D01*
X13318277Y-13213984D02*
X13365896Y-13213984D01*
X13365896Y-13213984D02*
X13384944Y-13223508D01*
X13384944Y-13223508D02*
X13394467Y-13233031D01*
X13394467Y-13233031D02*
X13403991Y-13252079D01*
X13403991Y-13252079D02*
X13403991Y-13271127D01*
X13403991Y-13271127D02*
X13394467Y-13299698D01*
X13394467Y-13299698D02*
X13280182Y-13413984D01*
X13280182Y-13413984D02*
X13403991Y-13413984D01*
X13575420Y-13213984D02*
X13537325Y-13213984D01*
X13537325Y-13213984D02*
X13518277Y-13223508D01*
X13518277Y-13223508D02*
X13508753Y-13233031D01*
X13508753Y-13233031D02*
X13489706Y-13261603D01*
X13489706Y-13261603D02*
X13480182Y-13299698D01*
X13480182Y-13299698D02*
X13480182Y-13375888D01*
X13480182Y-13375888D02*
X13489706Y-13394936D01*
X13489706Y-13394936D02*
X13499229Y-13404460D01*
X13499229Y-13404460D02*
X13518277Y-13413984D01*
X13518277Y-13413984D02*
X13556372Y-13413984D01*
X13556372Y-13413984D02*
X13575420Y-13404460D01*
X13575420Y-13404460D02*
X13584944Y-13394936D01*
X13584944Y-13394936D02*
X13594467Y-13375888D01*
X13594467Y-13375888D02*
X13594467Y-13328269D01*
X13594467Y-13328269D02*
X13584944Y-13309222D01*
X13584944Y-13309222D02*
X13575420Y-13299698D01*
X13575420Y-13299698D02*
X13556372Y-13290174D01*
X13556372Y-13290174D02*
X13518277Y-13290174D01*
X13518277Y-13290174D02*
X13499229Y-13299698D01*
X13499229Y-13299698D02*
X13489706Y-13309222D01*
X13489706Y-13309222D02*
X13480182Y-13328269D01*
X13718277Y-13213984D02*
X13737325Y-13213984D01*
X13737325Y-13213984D02*
X13756372Y-13223508D01*
X13756372Y-13223508D02*
X13765896Y-13233031D01*
X13765896Y-13233031D02*
X13775420Y-13252079D01*
X13775420Y-13252079D02*
X13784944Y-13290174D01*
X13784944Y-13290174D02*
X13784944Y-13337793D01*
X13784944Y-13337793D02*
X13775420Y-13375888D01*
X13775420Y-13375888D02*
X13765896Y-13394936D01*
X13765896Y-13394936D02*
X13756372Y-13404460D01*
X13756372Y-13404460D02*
X13737325Y-13413984D01*
X13737325Y-13413984D02*
X13718277Y-13413984D01*
X13718277Y-13413984D02*
X13699229Y-13404460D01*
X13699229Y-13404460D02*
X13689706Y-13394936D01*
X13689706Y-13394936D02*
X13680182Y-13375888D01*
X13680182Y-13375888D02*
X13670658Y-13337793D01*
X13670658Y-13337793D02*
X13670658Y-13290174D01*
X13670658Y-13290174D02*
X13680182Y-13252079D01*
X13680182Y-13252079D02*
X13689706Y-13233031D01*
X13689706Y-13233031D02*
X13699229Y-13223508D01*
X13699229Y-13223508D02*
X13718277Y-13213984D01*
X13861134Y-13213984D02*
X13861134Y-13252079D01*
X13937325Y-13213984D02*
X13937325Y-13252079D01*
X14232563Y-13490174D02*
X14223039Y-13480650D01*
X14223039Y-13480650D02*
X14203991Y-13452079D01*
X14203991Y-13452079D02*
X14194468Y-13433031D01*
X14194468Y-13433031D02*
X14184944Y-13404460D01*
X14184944Y-13404460D02*
X14175420Y-13356841D01*
X14175420Y-13356841D02*
X14175420Y-13318746D01*
X14175420Y-13318746D02*
X14184944Y-13271127D01*
X14184944Y-13271127D02*
X14194468Y-13242555D01*
X14194468Y-13242555D02*
X14203991Y-13223508D01*
X14203991Y-13223508D02*
X14223039Y-13194936D01*
X14223039Y-13194936D02*
X14232563Y-13185412D01*
X14289706Y-13213984D02*
X14413515Y-13213984D01*
X14413515Y-13213984D02*
X14346848Y-13290174D01*
X14346848Y-13290174D02*
X14375420Y-13290174D01*
X14375420Y-13290174D02*
X14394468Y-13299698D01*
X14394468Y-13299698D02*
X14403991Y-13309222D01*
X14403991Y-13309222D02*
X14413515Y-13328269D01*
X14413515Y-13328269D02*
X14413515Y-13375888D01*
X14413515Y-13375888D02*
X14403991Y-13394936D01*
X14403991Y-13394936D02*
X14394468Y-13404460D01*
X14394468Y-13404460D02*
X14375420Y-13413984D01*
X14375420Y-13413984D02*
X14318277Y-13413984D01*
X14318277Y-13413984D02*
X14299229Y-13404460D01*
X14299229Y-13404460D02*
X14289706Y-13394936D01*
X14651610Y-13413984D02*
X14651610Y-13213984D01*
X14737325Y-13413984D02*
X14737325Y-13309222D01*
X14737325Y-13309222D02*
X14727801Y-13290174D01*
X14727801Y-13290174D02*
X14708753Y-13280650D01*
X14708753Y-13280650D02*
X14680182Y-13280650D01*
X14680182Y-13280650D02*
X14661134Y-13290174D01*
X14661134Y-13290174D02*
X14651610Y-13299698D01*
X14861134Y-13413984D02*
X14842087Y-13404460D01*
X14842087Y-13404460D02*
X14832563Y-13394936D01*
X14832563Y-13394936D02*
X14823039Y-13375888D01*
X14823039Y-13375888D02*
X14823039Y-13318746D01*
X14823039Y-13318746D02*
X14832563Y-13299698D01*
X14832563Y-13299698D02*
X14842087Y-13290174D01*
X14842087Y-13290174D02*
X14861134Y-13280650D01*
X14861134Y-13280650D02*
X14889706Y-13280650D01*
X14889706Y-13280650D02*
X14908753Y-13290174D01*
X14908753Y-13290174D02*
X14918277Y-13299698D01*
X14918277Y-13299698D02*
X14927801Y-13318746D01*
X14927801Y-13318746D02*
X14927801Y-13375888D01*
X14927801Y-13375888D02*
X14918277Y-13394936D01*
X14918277Y-13394936D02*
X14908753Y-13404460D01*
X14908753Y-13404460D02*
X14889706Y-13413984D01*
X14889706Y-13413984D02*
X14861134Y-13413984D01*
X15042087Y-13413984D02*
X15023039Y-13404460D01*
X15023039Y-13404460D02*
X15013515Y-13385412D01*
X15013515Y-13385412D02*
X15013515Y-13213984D01*
X15194468Y-13404460D02*
X15175420Y-13413984D01*
X15175420Y-13413984D02*
X15137325Y-13413984D01*
X15137325Y-13413984D02*
X15118277Y-13404460D01*
X15118277Y-13404460D02*
X15108753Y-13385412D01*
X15108753Y-13385412D02*
X15108753Y-13309222D01*
X15108753Y-13309222D02*
X15118277Y-13290174D01*
X15118277Y-13290174D02*
X15137325Y-13280650D01*
X15137325Y-13280650D02*
X15175420Y-13280650D01*
X15175420Y-13280650D02*
X15194468Y-13290174D01*
X15194468Y-13290174D02*
X15203991Y-13309222D01*
X15203991Y-13309222D02*
X15203991Y-13328269D01*
X15203991Y-13328269D02*
X15108753Y-13347317D01*
X15280182Y-13404460D02*
X15299230Y-13413984D01*
X15299230Y-13413984D02*
X15337325Y-13413984D01*
X15337325Y-13413984D02*
X15356372Y-13404460D01*
X15356372Y-13404460D02*
X15365896Y-13385412D01*
X15365896Y-13385412D02*
X15365896Y-13375888D01*
X15365896Y-13375888D02*
X15356372Y-13356841D01*
X15356372Y-13356841D02*
X15337325Y-13347317D01*
X15337325Y-13347317D02*
X15308753Y-13347317D01*
X15308753Y-13347317D02*
X15289706Y-13337793D01*
X15289706Y-13337793D02*
X15280182Y-13318746D01*
X15280182Y-13318746D02*
X15280182Y-13309222D01*
X15280182Y-13309222D02*
X15289706Y-13290174D01*
X15289706Y-13290174D02*
X15308753Y-13280650D01*
X15308753Y-13280650D02*
X15337325Y-13280650D01*
X15337325Y-13280650D02*
X15356372Y-13290174D01*
X15432563Y-13490174D02*
X15442087Y-13480650D01*
X15442087Y-13480650D02*
X15461134Y-13452079D01*
X15461134Y-13452079D02*
X15470658Y-13433031D01*
X15470658Y-13433031D02*
X15480182Y-13404460D01*
X15480182Y-13404460D02*
X15489706Y-13356841D01*
X15489706Y-13356841D02*
X15489706Y-13318746D01*
X15489706Y-13318746D02*
X15480182Y-13271127D01*
X15480182Y-13271127D02*
X15470658Y-13242555D01*
X15470658Y-13242555D02*
X15461134Y-13223508D01*
X15461134Y-13223508D02*
X15442087Y-13194936D01*
X15442087Y-13194936D02*
X15432563Y-13185412D01*
X15794468Y-13490174D02*
X15784944Y-13480650D01*
X15784944Y-13480650D02*
X15765896Y-13452079D01*
X15765896Y-13452079D02*
X15756372Y-13433031D01*
X15756372Y-13433031D02*
X15746849Y-13404460D01*
X15746849Y-13404460D02*
X15737325Y-13356841D01*
X15737325Y-13356841D02*
X15737325Y-13318746D01*
X15737325Y-13318746D02*
X15746849Y-13271127D01*
X15746849Y-13271127D02*
X15756372Y-13242555D01*
X15756372Y-13242555D02*
X15765896Y-13223508D01*
X15765896Y-13223508D02*
X15784944Y-13194936D01*
X15784944Y-13194936D02*
X15794468Y-13185412D01*
X15870658Y-13280650D02*
X15870658Y-13413984D01*
X15870658Y-13299698D02*
X15880182Y-13290174D01*
X15880182Y-13290174D02*
X15899230Y-13280650D01*
X15899230Y-13280650D02*
X15927801Y-13280650D01*
X15927801Y-13280650D02*
X15946849Y-13290174D01*
X15946849Y-13290174D02*
X15956372Y-13309222D01*
X15956372Y-13309222D02*
X15956372Y-13413984D01*
X16080182Y-13413984D02*
X16061134Y-13404460D01*
X16061134Y-13404460D02*
X16051611Y-13394936D01*
X16051611Y-13394936D02*
X16042087Y-13375888D01*
X16042087Y-13375888D02*
X16042087Y-13318746D01*
X16042087Y-13318746D02*
X16051611Y-13299698D01*
X16051611Y-13299698D02*
X16061134Y-13290174D01*
X16061134Y-13290174D02*
X16080182Y-13280650D01*
X16080182Y-13280650D02*
X16108753Y-13280650D01*
X16108753Y-13280650D02*
X16127801Y-13290174D01*
X16127801Y-13290174D02*
X16137325Y-13299698D01*
X16137325Y-13299698D02*
X16146849Y-13318746D01*
X16146849Y-13318746D02*
X16146849Y-13375888D01*
X16146849Y-13375888D02*
X16137325Y-13394936D01*
X16137325Y-13394936D02*
X16127801Y-13404460D01*
X16127801Y-13404460D02*
X16108753Y-13413984D01*
X16108753Y-13413984D02*
X16080182Y-13413984D01*
X16203992Y-13280650D02*
X16280182Y-13280650D01*
X16232563Y-13213984D02*
X16232563Y-13385412D01*
X16232563Y-13385412D02*
X16242087Y-13404460D01*
X16242087Y-13404460D02*
X16261134Y-13413984D01*
X16261134Y-13413984D02*
X16280182Y-13413984D01*
X16499230Y-13280650D02*
X16499230Y-13480650D01*
X16499230Y-13290174D02*
X16518277Y-13280650D01*
X16518277Y-13280650D02*
X16556373Y-13280650D01*
X16556373Y-13280650D02*
X16575420Y-13290174D01*
X16575420Y-13290174D02*
X16584944Y-13299698D01*
X16584944Y-13299698D02*
X16594468Y-13318746D01*
X16594468Y-13318746D02*
X16594468Y-13375888D01*
X16594468Y-13375888D02*
X16584944Y-13394936D01*
X16584944Y-13394936D02*
X16575420Y-13404460D01*
X16575420Y-13404460D02*
X16556373Y-13413984D01*
X16556373Y-13413984D02*
X16518277Y-13413984D01*
X16518277Y-13413984D02*
X16499230Y-13404460D01*
X16708753Y-13413984D02*
X16689706Y-13404460D01*
X16689706Y-13404460D02*
X16680182Y-13385412D01*
X16680182Y-13385412D02*
X16680182Y-13213984D01*
X16870658Y-13413984D02*
X16870658Y-13309222D01*
X16870658Y-13309222D02*
X16861135Y-13290174D01*
X16861135Y-13290174D02*
X16842087Y-13280650D01*
X16842087Y-13280650D02*
X16803992Y-13280650D01*
X16803992Y-13280650D02*
X16784944Y-13290174D01*
X16870658Y-13404460D02*
X16851611Y-13413984D01*
X16851611Y-13413984D02*
X16803992Y-13413984D01*
X16803992Y-13413984D02*
X16784944Y-13404460D01*
X16784944Y-13404460D02*
X16775420Y-13385412D01*
X16775420Y-13385412D02*
X16775420Y-13366365D01*
X16775420Y-13366365D02*
X16784944Y-13347317D01*
X16784944Y-13347317D02*
X16803992Y-13337793D01*
X16803992Y-13337793D02*
X16851611Y-13337793D01*
X16851611Y-13337793D02*
X16870658Y-13328269D01*
X16937325Y-13280650D02*
X17013515Y-13280650D01*
X16965896Y-13213984D02*
X16965896Y-13385412D01*
X16965896Y-13385412D02*
X16975420Y-13404460D01*
X16975420Y-13404460D02*
X16994468Y-13413984D01*
X16994468Y-13413984D02*
X17013515Y-13413984D01*
X17156373Y-13404460D02*
X17137325Y-13413984D01*
X17137325Y-13413984D02*
X17099230Y-13413984D01*
X17099230Y-13413984D02*
X17080182Y-13404460D01*
X17080182Y-13404460D02*
X17070658Y-13385412D01*
X17070658Y-13385412D02*
X17070658Y-13309222D01*
X17070658Y-13309222D02*
X17080182Y-13290174D01*
X17080182Y-13290174D02*
X17099230Y-13280650D01*
X17099230Y-13280650D02*
X17137325Y-13280650D01*
X17137325Y-13280650D02*
X17156373Y-13290174D01*
X17156373Y-13290174D02*
X17165896Y-13309222D01*
X17165896Y-13309222D02*
X17165896Y-13328269D01*
X17165896Y-13328269D02*
X17070658Y-13347317D01*
X17337325Y-13413984D02*
X17337325Y-13213984D01*
X17337325Y-13404460D02*
X17318277Y-13413984D01*
X17318277Y-13413984D02*
X17280182Y-13413984D01*
X17280182Y-13413984D02*
X17261135Y-13404460D01*
X17261135Y-13404460D02*
X17251611Y-13394936D01*
X17251611Y-13394936D02*
X17242087Y-13375888D01*
X17242087Y-13375888D02*
X17242087Y-13318746D01*
X17242087Y-13318746D02*
X17251611Y-13299698D01*
X17251611Y-13299698D02*
X17261135Y-13290174D01*
X17261135Y-13290174D02*
X17280182Y-13280650D01*
X17280182Y-13280650D02*
X17318277Y-13280650D01*
X17318277Y-13280650D02*
X17337325Y-13290174D01*
X17413516Y-13490174D02*
X17423039Y-13480650D01*
X17423039Y-13480650D02*
X17442087Y-13452079D01*
X17442087Y-13452079D02*
X17451611Y-13433031D01*
X17451611Y-13433031D02*
X17461135Y-13404460D01*
X17461135Y-13404460D02*
X17470658Y-13356841D01*
X17470658Y-13356841D02*
X17470658Y-13318746D01*
X17470658Y-13318746D02*
X17461135Y-13271127D01*
X17461135Y-13271127D02*
X17451611Y-13242555D01*
X17451611Y-13242555D02*
X17442087Y-13223508D01*
X17442087Y-13223508D02*
X17423039Y-13194936D01*
X17423039Y-13194936D02*
X17413516Y-13185412D01*
M02*
