%TF.GenerationSoftware,KiCad,Pcbnew,8.0.8*%
%TF.CreationDate,2025-03-08T03:31:29+02:00*%
%TF.ProjectId,station_circuit,73746174-696f-46e5-9f63-697263756974,rev?*%
%TF.SameCoordinates,Original*%
%TF.FileFunction,Drillmap*%
%TF.FilePolarity,Positive*%
%FSLAX45Y45*%
G04 Gerber Fmt 4.5, Leading zero omitted, Abs format (unit mm)*
G04 Created by KiCad (PCBNEW 8.0.8) date 2025-03-08 03:31:29*
%MOMM*%
%LPD*%
G01*
G04 APERTURE LIST*
%ADD10C,0.050000*%
%ADD11C,0.200000*%
%ADD12C,0.100000*%
%ADD13C,0.102000*%
%ADD14C,0.110000*%
%ADD15C,0.124000*%
G04 APERTURE END LIST*
D10*
X10660000Y-7090000D02*
X17740000Y-7090000D01*
X17740000Y-12680000D01*
X10660000Y-12680000D01*
X10660000Y-7090000D01*
D11*
D12*
X14871000Y-8935000D02*
X14951000Y-9015000D01*
X14951000Y-8935000D02*
X14871000Y-9015000D01*
X14872000Y-9255000D02*
X14952000Y-9335000D01*
X14952000Y-9255000D02*
X14872000Y-9335000D01*
X15633000Y-8935000D02*
X15713000Y-9015000D01*
X15713000Y-8935000D02*
X15633000Y-9015000D01*
X15634000Y-9255000D02*
X15714000Y-9335000D01*
X15714000Y-9255000D02*
X15634000Y-9335000D01*
X11060000Y-7480000D02*
G75*
G02*
X10960000Y-7480000I-50000J0D01*
G01*
X10960000Y-7480000D02*
G75*
G02*
X11060000Y-7480000I50000J0D01*
G01*
X11060000Y-8065000D02*
G75*
G02*
X10960000Y-8065000I-50000J0D01*
G01*
X10960000Y-8065000D02*
G75*
G02*
X11060000Y-8065000I50000J0D01*
G01*
X11060000Y-8650000D02*
G75*
G02*
X10960000Y-8650000I-50000J0D01*
G01*
X10960000Y-8650000D02*
G75*
G02*
X11060000Y-8650000I50000J0D01*
G01*
X11060000Y-9235000D02*
G75*
G02*
X10960000Y-9235000I-50000J0D01*
G01*
X10960000Y-9235000D02*
G75*
G02*
X11060000Y-9235000I50000J0D01*
G01*
X11060000Y-9820000D02*
G75*
G02*
X10960000Y-9820000I-50000J0D01*
G01*
X10960000Y-9820000D02*
G75*
G02*
X11060000Y-9820000I50000J0D01*
G01*
X11060000Y-10405000D02*
G75*
G02*
X10960000Y-10405000I-50000J0D01*
G01*
X10960000Y-10405000D02*
G75*
G02*
X11060000Y-10405000I50000J0D01*
G01*
X11060000Y-10990000D02*
G75*
G02*
X10960000Y-10990000I-50000J0D01*
G01*
X10960000Y-10990000D02*
G75*
G02*
X11060000Y-10990000I50000J0D01*
G01*
X11060000Y-11575000D02*
G75*
G02*
X10960000Y-11575000I-50000J0D01*
G01*
X10960000Y-11575000D02*
G75*
G02*
X11060000Y-11575000I50000J0D01*
G01*
X11060000Y-12160000D02*
G75*
G02*
X10960000Y-12160000I-50000J0D01*
G01*
X10960000Y-12160000D02*
G75*
G02*
X11060000Y-12160000I50000J0D01*
G01*
X11310000Y-7480000D02*
G75*
G02*
X11210000Y-7480000I-50000J0D01*
G01*
X11210000Y-7480000D02*
G75*
G02*
X11310000Y-7480000I50000J0D01*
G01*
X11310000Y-8065000D02*
G75*
G02*
X11210000Y-8065000I-50000J0D01*
G01*
X11210000Y-8065000D02*
G75*
G02*
X11310000Y-8065000I50000J0D01*
G01*
X11310000Y-8650000D02*
G75*
G02*
X11210000Y-8650000I-50000J0D01*
G01*
X11210000Y-8650000D02*
G75*
G02*
X11310000Y-8650000I50000J0D01*
G01*
X11310000Y-9235000D02*
G75*
G02*
X11210000Y-9235000I-50000J0D01*
G01*
X11210000Y-9235000D02*
G75*
G02*
X11310000Y-9235000I50000J0D01*
G01*
X11310000Y-9820000D02*
G75*
G02*
X11210000Y-9820000I-50000J0D01*
G01*
X11210000Y-9820000D02*
G75*
G02*
X11310000Y-9820000I50000J0D01*
G01*
X11310000Y-10405000D02*
G75*
G02*
X11210000Y-10405000I-50000J0D01*
G01*
X11210000Y-10405000D02*
G75*
G02*
X11310000Y-10405000I50000J0D01*
G01*
X11310000Y-10990000D02*
G75*
G02*
X11210000Y-10990000I-50000J0D01*
G01*
X11210000Y-10990000D02*
G75*
G02*
X11310000Y-10990000I50000J0D01*
G01*
X11310000Y-11575000D02*
G75*
G02*
X11210000Y-11575000I-50000J0D01*
G01*
X11210000Y-11575000D02*
G75*
G02*
X11310000Y-11575000I50000J0D01*
G01*
X11310000Y-12160000D02*
G75*
G02*
X11210000Y-12160000I-50000J0D01*
G01*
X11210000Y-12160000D02*
G75*
G02*
X11310000Y-12160000I50000J0D01*
G01*
X14996000Y-10983000D02*
G75*
G02*
X14896000Y-10983000I-50000J0D01*
G01*
X14896000Y-10983000D02*
G75*
G02*
X14996000Y-10983000I50000J0D01*
G01*
X14996000Y-11237000D02*
G75*
G02*
X14896000Y-11237000I-50000J0D01*
G01*
X14896000Y-11237000D02*
G75*
G02*
X14996000Y-11237000I50000J0D01*
G01*
X14996000Y-11491000D02*
G75*
G02*
X14896000Y-11491000I-50000J0D01*
G01*
X14896000Y-11491000D02*
G75*
G02*
X14996000Y-11491000I50000J0D01*
G01*
X14996000Y-11745000D02*
G75*
G02*
X14896000Y-11745000I-50000J0D01*
G01*
X14896000Y-11745000D02*
G75*
G02*
X14996000Y-11745000I50000J0D01*
G01*
X15250000Y-10983000D02*
G75*
G02*
X15150000Y-10983000I-50000J0D01*
G01*
X15150000Y-10983000D02*
G75*
G02*
X15250000Y-10983000I50000J0D01*
G01*
X15250000Y-11237000D02*
G75*
G02*
X15150000Y-11237000I-50000J0D01*
G01*
X15150000Y-11237000D02*
G75*
G02*
X15250000Y-11237000I50000J0D01*
G01*
X15250000Y-11491000D02*
G75*
G02*
X15150000Y-11491000I-50000J0D01*
G01*
X15150000Y-11491000D02*
G75*
G02*
X15250000Y-11491000I50000J0D01*
G01*
X15250000Y-11745000D02*
G75*
G02*
X15150000Y-11745000I-50000J0D01*
G01*
X15150000Y-11745000D02*
G75*
G02*
X15250000Y-11745000I50000J0D01*
G01*
X16070000Y-8260000D02*
G75*
G02*
X15970000Y-8260000I-50000J0D01*
G01*
X15970000Y-8260000D02*
G75*
G02*
X16070000Y-8260000I50000J0D01*
G01*
X16070000Y-8370000D02*
X16070000Y-8150000D01*
X15970000Y-8150000D02*
G75*
G02*
X16070000Y-8150000I50000J0D01*
G01*
X15970000Y-8150000D02*
X15970000Y-8370000D01*
X15970000Y-8370000D02*
G75*
G03*
X16070000Y-8370000I50000J0D01*
G01*
X16157500Y-10410000D02*
G75*
G02*
X16057500Y-10410000I-50000J0D01*
G01*
X16057500Y-10410000D02*
G75*
G02*
X16157500Y-10410000I50000J0D01*
G01*
X16411500Y-10410000D02*
G75*
G02*
X16311500Y-10410000I-50000J0D01*
G01*
X16311500Y-10410000D02*
G75*
G02*
X16411500Y-10410000I50000J0D01*
G01*
X16550000Y-7920000D02*
G75*
G02*
X16450000Y-7920000I-50000J0D01*
G01*
X16450000Y-7920000D02*
G75*
G02*
X16550000Y-7920000I50000J0D01*
G01*
X16610000Y-7870000D02*
X16390000Y-7870000D01*
X16390000Y-7970000D02*
G75*
G02*
X16390000Y-7870000I0J50000D01*
G01*
X16390000Y-7970000D02*
X16610000Y-7970000D01*
X16610000Y-7970000D02*
G75*
G03*
X16610000Y-7870000I0J50000D01*
G01*
X16550000Y-8550000D02*
G75*
G02*
X16450000Y-8550000I-50000J0D01*
G01*
X16450000Y-8550000D02*
G75*
G02*
X16550000Y-8550000I50000J0D01*
G01*
X16630000Y-8500000D02*
X16370000Y-8500000D01*
X16370000Y-8600000D02*
G75*
G02*
X16370000Y-8500000I0J50000D01*
G01*
X16370000Y-8600000D02*
X16630000Y-8600000D01*
X16630000Y-8600000D02*
G75*
G03*
X16630000Y-8500000I0J50000D01*
G01*
X16665500Y-10410000D02*
G75*
G02*
X16565500Y-10410000I-50000J0D01*
G01*
X16565500Y-10410000D02*
G75*
G02*
X16665500Y-10410000I50000J0D01*
G01*
D13*
X12410500Y-7382500D02*
X12410500Y-7484500D01*
X12359500Y-7433500D02*
X12461500Y-7433500D01*
X12410500Y-7636500D02*
X12410500Y-7738500D01*
X12359500Y-7687500D02*
X12461500Y-7687500D01*
X12410500Y-7890500D02*
X12410500Y-7992500D01*
X12359500Y-7941500D02*
X12461500Y-7941500D01*
X12410500Y-8144500D02*
X12410500Y-8246500D01*
X12359500Y-8195500D02*
X12461500Y-8195500D01*
X12410500Y-8398500D02*
X12410500Y-8500500D01*
X12359500Y-8449500D02*
X12461500Y-8449500D01*
X12410500Y-8652500D02*
X12410500Y-8754500D01*
X12359500Y-8703500D02*
X12461500Y-8703500D01*
X12410500Y-8906500D02*
X12410500Y-9008500D01*
X12359500Y-8957500D02*
X12461500Y-8957500D01*
X12410500Y-9160500D02*
X12410500Y-9262500D01*
X12359500Y-9211500D02*
X12461500Y-9211500D01*
X12410500Y-9414500D02*
X12410500Y-9516500D01*
X12359500Y-9465500D02*
X12461500Y-9465500D01*
X12410500Y-9668500D02*
X12410500Y-9770500D01*
X12359500Y-9719500D02*
X12461500Y-9719500D01*
X12410500Y-9922500D02*
X12410500Y-10024500D01*
X12359500Y-9973500D02*
X12461500Y-9973500D01*
X12410500Y-10176500D02*
X12410500Y-10278500D01*
X12359500Y-10227500D02*
X12461500Y-10227500D01*
X12410500Y-10430500D02*
X12410500Y-10532500D01*
X12359500Y-10481500D02*
X12461500Y-10481500D01*
X12410500Y-10684500D02*
X12410500Y-10786500D01*
X12359500Y-10735500D02*
X12461500Y-10735500D01*
X12410500Y-10938500D02*
X12410500Y-11040500D01*
X12359500Y-10989500D02*
X12461500Y-10989500D01*
X12410500Y-11192500D02*
X12410500Y-11294500D01*
X12359500Y-11243500D02*
X12461500Y-11243500D01*
X12410500Y-11446500D02*
X12410500Y-11548500D01*
X12359500Y-11497500D02*
X12461500Y-11497500D01*
X12410500Y-11700500D02*
X12410500Y-11802500D01*
X12359500Y-11751500D02*
X12461500Y-11751500D01*
X12410500Y-11954500D02*
X12410500Y-12056500D01*
X12359500Y-12005500D02*
X12461500Y-12005500D01*
X12410500Y-12208500D02*
X12410500Y-12310500D01*
X12359500Y-12259500D02*
X12461500Y-12259500D01*
X14188500Y-7382500D02*
X14188500Y-7484500D01*
X14137500Y-7433500D02*
X14239500Y-7433500D01*
X14188500Y-7636500D02*
X14188500Y-7738500D01*
X14137500Y-7687500D02*
X14239500Y-7687500D01*
X14188500Y-7890500D02*
X14188500Y-7992500D01*
X14137500Y-7941500D02*
X14239500Y-7941500D01*
X14188500Y-8144500D02*
X14188500Y-8246500D01*
X14137500Y-8195500D02*
X14239500Y-8195500D01*
X14188500Y-8398500D02*
X14188500Y-8500500D01*
X14137500Y-8449500D02*
X14239500Y-8449500D01*
X14188500Y-8652500D02*
X14188500Y-8754500D01*
X14137500Y-8703500D02*
X14239500Y-8703500D01*
X14188500Y-8906500D02*
X14188500Y-9008500D01*
X14137500Y-8957500D02*
X14239500Y-8957500D01*
X14188500Y-9160500D02*
X14188500Y-9262500D01*
X14137500Y-9211500D02*
X14239500Y-9211500D01*
X14188500Y-9414500D02*
X14188500Y-9516500D01*
X14137500Y-9465500D02*
X14239500Y-9465500D01*
X14188500Y-9668500D02*
X14188500Y-9770500D01*
X14137500Y-9719500D02*
X14239500Y-9719500D01*
X14188500Y-9922500D02*
X14188500Y-10024500D01*
X14137500Y-9973500D02*
X14239500Y-9973500D01*
X14188500Y-10176500D02*
X14188500Y-10278500D01*
X14137500Y-10227500D02*
X14239500Y-10227500D01*
X14188500Y-10430500D02*
X14188500Y-10532500D01*
X14137500Y-10481500D02*
X14239500Y-10481500D01*
X14188500Y-10684500D02*
X14188500Y-10786500D01*
X14137500Y-10735500D02*
X14239500Y-10735500D01*
X14188500Y-10938500D02*
X14188500Y-11040500D01*
X14137500Y-10989500D02*
X14239500Y-10989500D01*
X14188500Y-11192500D02*
X14188500Y-11294500D01*
X14137500Y-11243500D02*
X14239500Y-11243500D01*
X14188500Y-11446500D02*
X14188500Y-11548500D01*
X14137500Y-11497500D02*
X14239500Y-11497500D01*
X14188500Y-11700500D02*
X14188500Y-11802500D01*
X14137500Y-11751500D02*
X14239500Y-11751500D01*
X14188500Y-11954500D02*
X14188500Y-12056500D01*
X14137500Y-12005500D02*
X14239500Y-12005500D01*
X14188500Y-12208500D02*
X14188500Y-12310500D01*
X14137500Y-12259500D02*
X14239500Y-12259500D01*
D14*
X14827891Y-7733891D02*
X14827891Y-7656109D01*
X14750109Y-7656109D01*
X14750109Y-7733891D01*
X14827891Y-7733891D01*
X15038891Y-10038891D02*
X15038891Y-9961109D01*
X14961109Y-9961109D01*
X14961109Y-10038891D01*
X15038891Y-10038891D01*
X15038891Y-10488891D02*
X15038891Y-10411109D01*
X14961109Y-10411109D01*
X14961109Y-10488891D01*
X15038891Y-10488891D01*
X15688891Y-10038891D02*
X15688891Y-9961109D01*
X15611109Y-9961109D01*
X15611109Y-10038891D01*
X15688891Y-10038891D01*
X15688891Y-10488891D02*
X15688891Y-10411109D01*
X15611109Y-10411109D01*
X15611109Y-10488891D01*
X15688891Y-10488891D01*
X15843891Y-7733891D02*
X15843891Y-7656109D01*
X15766109Y-7656109D01*
X15766109Y-7733891D01*
X15843891Y-7733891D01*
D15*
X15055000Y-8656000D02*
X15117000Y-8594000D01*
X15055000Y-8532000D01*
X14993000Y-8594000D01*
X15055000Y-8656000D01*
X15309000Y-8656000D02*
X15371000Y-8594000D01*
X15309000Y-8532000D01*
X15247000Y-8594000D01*
X15309000Y-8656000D01*
X15563000Y-8656000D02*
X15625000Y-8594000D01*
X15563000Y-8532000D01*
X15501000Y-8594000D01*
X15563000Y-8656000D01*
D11*
X10918277Y-12993984D02*
X10918277Y-12793984D01*
X10918277Y-12793984D02*
X10965896Y-12793984D01*
X10965896Y-12793984D02*
X10994467Y-12803508D01*
X10994467Y-12803508D02*
X11013515Y-12822555D01*
X11013515Y-12822555D02*
X11023039Y-12841603D01*
X11023039Y-12841603D02*
X11032563Y-12879698D01*
X11032563Y-12879698D02*
X11032563Y-12908269D01*
X11032563Y-12908269D02*
X11023039Y-12946365D01*
X11023039Y-12946365D02*
X11013515Y-12965412D01*
X11013515Y-12965412D02*
X10994467Y-12984460D01*
X10994467Y-12984460D02*
X10965896Y-12993984D01*
X10965896Y-12993984D02*
X10918277Y-12993984D01*
X11118277Y-12993984D02*
X11118277Y-12860650D01*
X11118277Y-12898746D02*
X11127801Y-12879698D01*
X11127801Y-12879698D02*
X11137324Y-12870174D01*
X11137324Y-12870174D02*
X11156372Y-12860650D01*
X11156372Y-12860650D02*
X11175420Y-12860650D01*
X11242086Y-12993984D02*
X11242086Y-12860650D01*
X11242086Y-12793984D02*
X11232562Y-12803508D01*
X11232562Y-12803508D02*
X11242086Y-12813031D01*
X11242086Y-12813031D02*
X11251610Y-12803508D01*
X11251610Y-12803508D02*
X11242086Y-12793984D01*
X11242086Y-12793984D02*
X11242086Y-12813031D01*
X11365896Y-12993984D02*
X11346848Y-12984460D01*
X11346848Y-12984460D02*
X11337324Y-12965412D01*
X11337324Y-12965412D02*
X11337324Y-12793984D01*
X11470658Y-12993984D02*
X11451610Y-12984460D01*
X11451610Y-12984460D02*
X11442086Y-12965412D01*
X11442086Y-12965412D02*
X11442086Y-12793984D01*
X11699229Y-12993984D02*
X11699229Y-12793984D01*
X11699229Y-12793984D02*
X11765896Y-12936841D01*
X11765896Y-12936841D02*
X11832562Y-12793984D01*
X11832562Y-12793984D02*
X11832562Y-12993984D01*
X12013515Y-12993984D02*
X12013515Y-12889222D01*
X12013515Y-12889222D02*
X12003991Y-12870174D01*
X12003991Y-12870174D02*
X11984943Y-12860650D01*
X11984943Y-12860650D02*
X11946848Y-12860650D01*
X11946848Y-12860650D02*
X11927801Y-12870174D01*
X12013515Y-12984460D02*
X11994467Y-12993984D01*
X11994467Y-12993984D02*
X11946848Y-12993984D01*
X11946848Y-12993984D02*
X11927801Y-12984460D01*
X11927801Y-12984460D02*
X11918277Y-12965412D01*
X11918277Y-12965412D02*
X11918277Y-12946365D01*
X11918277Y-12946365D02*
X11927801Y-12927317D01*
X11927801Y-12927317D02*
X11946848Y-12917793D01*
X11946848Y-12917793D02*
X11994467Y-12917793D01*
X11994467Y-12917793D02*
X12013515Y-12908269D01*
X12108753Y-12860650D02*
X12108753Y-13060650D01*
X12108753Y-12870174D02*
X12127801Y-12860650D01*
X12127801Y-12860650D02*
X12165896Y-12860650D01*
X12165896Y-12860650D02*
X12184943Y-12870174D01*
X12184943Y-12870174D02*
X12194467Y-12879698D01*
X12194467Y-12879698D02*
X12203991Y-12898746D01*
X12203991Y-12898746D02*
X12203991Y-12955888D01*
X12203991Y-12955888D02*
X12194467Y-12974936D01*
X12194467Y-12974936D02*
X12184943Y-12984460D01*
X12184943Y-12984460D02*
X12165896Y-12993984D01*
X12165896Y-12993984D02*
X12127801Y-12993984D01*
X12127801Y-12993984D02*
X12108753Y-12984460D01*
X12289705Y-12974936D02*
X12299229Y-12984460D01*
X12299229Y-12984460D02*
X12289705Y-12993984D01*
X12289705Y-12993984D02*
X12280182Y-12984460D01*
X12280182Y-12984460D02*
X12289705Y-12974936D01*
X12289705Y-12974936D02*
X12289705Y-12993984D01*
X12289705Y-12870174D02*
X12299229Y-12879698D01*
X12299229Y-12879698D02*
X12289705Y-12889222D01*
X12289705Y-12889222D02*
X12280182Y-12879698D01*
X12280182Y-12879698D02*
X12289705Y-12870174D01*
X12289705Y-12870174D02*
X12289705Y-12889222D01*
D12*
X10577500Y-13282500D02*
X10657500Y-13362500D01*
X10657500Y-13282500D02*
X10577500Y-13362500D01*
D11*
X10956372Y-13213984D02*
X10975420Y-13213984D01*
X10975420Y-13213984D02*
X10994467Y-13223508D01*
X10994467Y-13223508D02*
X11003991Y-13233031D01*
X11003991Y-13233031D02*
X11013515Y-13252079D01*
X11013515Y-13252079D02*
X11023039Y-13290174D01*
X11023039Y-13290174D02*
X11023039Y-13337793D01*
X11023039Y-13337793D02*
X11013515Y-13375888D01*
X11013515Y-13375888D02*
X11003991Y-13394936D01*
X11003991Y-13394936D02*
X10994467Y-13404460D01*
X10994467Y-13404460D02*
X10975420Y-13413984D01*
X10975420Y-13413984D02*
X10956372Y-13413984D01*
X10956372Y-13413984D02*
X10937324Y-13404460D01*
X10937324Y-13404460D02*
X10927801Y-13394936D01*
X10927801Y-13394936D02*
X10918277Y-13375888D01*
X10918277Y-13375888D02*
X10908753Y-13337793D01*
X10908753Y-13337793D02*
X10908753Y-13290174D01*
X10908753Y-13290174D02*
X10918277Y-13252079D01*
X10918277Y-13252079D02*
X10927801Y-13233031D01*
X10927801Y-13233031D02*
X10937324Y-13223508D01*
X10937324Y-13223508D02*
X10956372Y-13213984D01*
X11108753Y-13394936D02*
X11118277Y-13404460D01*
X11118277Y-13404460D02*
X11108753Y-13413984D01*
X11108753Y-13413984D02*
X11099229Y-13404460D01*
X11099229Y-13404460D02*
X11108753Y-13394936D01*
X11108753Y-13394936D02*
X11108753Y-13413984D01*
X11232562Y-13299698D02*
X11213515Y-13290174D01*
X11213515Y-13290174D02*
X11203991Y-13280650D01*
X11203991Y-13280650D02*
X11194467Y-13261603D01*
X11194467Y-13261603D02*
X11194467Y-13252079D01*
X11194467Y-13252079D02*
X11203991Y-13233031D01*
X11203991Y-13233031D02*
X11213515Y-13223508D01*
X11213515Y-13223508D02*
X11232562Y-13213984D01*
X11232562Y-13213984D02*
X11270658Y-13213984D01*
X11270658Y-13213984D02*
X11289705Y-13223508D01*
X11289705Y-13223508D02*
X11299229Y-13233031D01*
X11299229Y-13233031D02*
X11308753Y-13252079D01*
X11308753Y-13252079D02*
X11308753Y-13261603D01*
X11308753Y-13261603D02*
X11299229Y-13280650D01*
X11299229Y-13280650D02*
X11289705Y-13290174D01*
X11289705Y-13290174D02*
X11270658Y-13299698D01*
X11270658Y-13299698D02*
X11232562Y-13299698D01*
X11232562Y-13299698D02*
X11213515Y-13309222D01*
X11213515Y-13309222D02*
X11203991Y-13318746D01*
X11203991Y-13318746D02*
X11194467Y-13337793D01*
X11194467Y-13337793D02*
X11194467Y-13375888D01*
X11194467Y-13375888D02*
X11203991Y-13394936D01*
X11203991Y-13394936D02*
X11213515Y-13404460D01*
X11213515Y-13404460D02*
X11232562Y-13413984D01*
X11232562Y-13413984D02*
X11270658Y-13413984D01*
X11270658Y-13413984D02*
X11289705Y-13404460D01*
X11289705Y-13404460D02*
X11299229Y-13394936D01*
X11299229Y-13394936D02*
X11308753Y-13375888D01*
X11308753Y-13375888D02*
X11308753Y-13337793D01*
X11308753Y-13337793D02*
X11299229Y-13318746D01*
X11299229Y-13318746D02*
X11289705Y-13309222D01*
X11289705Y-13309222D02*
X11270658Y-13299698D01*
X11432562Y-13213984D02*
X11451610Y-13213984D01*
X11451610Y-13213984D02*
X11470658Y-13223508D01*
X11470658Y-13223508D02*
X11480182Y-13233031D01*
X11480182Y-13233031D02*
X11489705Y-13252079D01*
X11489705Y-13252079D02*
X11499229Y-13290174D01*
X11499229Y-13290174D02*
X11499229Y-13337793D01*
X11499229Y-13337793D02*
X11489705Y-13375888D01*
X11489705Y-13375888D02*
X11480182Y-13394936D01*
X11480182Y-13394936D02*
X11470658Y-13404460D01*
X11470658Y-13404460D02*
X11451610Y-13413984D01*
X11451610Y-13413984D02*
X11432562Y-13413984D01*
X11432562Y-13413984D02*
X11413515Y-13404460D01*
X11413515Y-13404460D02*
X11403991Y-13394936D01*
X11403991Y-13394936D02*
X11394467Y-13375888D01*
X11394467Y-13375888D02*
X11384943Y-13337793D01*
X11384943Y-13337793D02*
X11384943Y-13290174D01*
X11384943Y-13290174D02*
X11394467Y-13252079D01*
X11394467Y-13252079D02*
X11403991Y-13233031D01*
X11403991Y-13233031D02*
X11413515Y-13223508D01*
X11413515Y-13223508D02*
X11432562Y-13213984D01*
X11623039Y-13213984D02*
X11642086Y-13213984D01*
X11642086Y-13213984D02*
X11661134Y-13223508D01*
X11661134Y-13223508D02*
X11670658Y-13233031D01*
X11670658Y-13233031D02*
X11680182Y-13252079D01*
X11680182Y-13252079D02*
X11689705Y-13290174D01*
X11689705Y-13290174D02*
X11689705Y-13337793D01*
X11689705Y-13337793D02*
X11680182Y-13375888D01*
X11680182Y-13375888D02*
X11670658Y-13394936D01*
X11670658Y-13394936D02*
X11661134Y-13404460D01*
X11661134Y-13404460D02*
X11642086Y-13413984D01*
X11642086Y-13413984D02*
X11623039Y-13413984D01*
X11623039Y-13413984D02*
X11603991Y-13404460D01*
X11603991Y-13404460D02*
X11594467Y-13394936D01*
X11594467Y-13394936D02*
X11584943Y-13375888D01*
X11584943Y-13375888D02*
X11575420Y-13337793D01*
X11575420Y-13337793D02*
X11575420Y-13290174D01*
X11575420Y-13290174D02*
X11584943Y-13252079D01*
X11584943Y-13252079D02*
X11594467Y-13233031D01*
X11594467Y-13233031D02*
X11603991Y-13223508D01*
X11603991Y-13223508D02*
X11623039Y-13213984D01*
X11775420Y-13413984D02*
X11775420Y-13280650D01*
X11775420Y-13299698D02*
X11784943Y-13290174D01*
X11784943Y-13290174D02*
X11803991Y-13280650D01*
X11803991Y-13280650D02*
X11832563Y-13280650D01*
X11832563Y-13280650D02*
X11851610Y-13290174D01*
X11851610Y-13290174D02*
X11861134Y-13309222D01*
X11861134Y-13309222D02*
X11861134Y-13413984D01*
X11861134Y-13309222D02*
X11870658Y-13290174D01*
X11870658Y-13290174D02*
X11889705Y-13280650D01*
X11889705Y-13280650D02*
X11918277Y-13280650D01*
X11918277Y-13280650D02*
X11937324Y-13290174D01*
X11937324Y-13290174D02*
X11946848Y-13309222D01*
X11946848Y-13309222D02*
X11946848Y-13413984D01*
X12042086Y-13413984D02*
X12042086Y-13280650D01*
X12042086Y-13299698D02*
X12051610Y-13290174D01*
X12051610Y-13290174D02*
X12070658Y-13280650D01*
X12070658Y-13280650D02*
X12099229Y-13280650D01*
X12099229Y-13280650D02*
X12118277Y-13290174D01*
X12118277Y-13290174D02*
X12127801Y-13309222D01*
X12127801Y-13309222D02*
X12127801Y-13413984D01*
X12127801Y-13309222D02*
X12137324Y-13290174D01*
X12137324Y-13290174D02*
X12156372Y-13280650D01*
X12156372Y-13280650D02*
X12184943Y-13280650D01*
X12184943Y-13280650D02*
X12203991Y-13290174D01*
X12203991Y-13290174D02*
X12213515Y-13309222D01*
X12213515Y-13309222D02*
X12213515Y-13413984D01*
X12603991Y-13204460D02*
X12432563Y-13461603D01*
X12861134Y-13213984D02*
X12880182Y-13213984D01*
X12880182Y-13213984D02*
X12899229Y-13223508D01*
X12899229Y-13223508D02*
X12908753Y-13233031D01*
X12908753Y-13233031D02*
X12918277Y-13252079D01*
X12918277Y-13252079D02*
X12927801Y-13290174D01*
X12927801Y-13290174D02*
X12927801Y-13337793D01*
X12927801Y-13337793D02*
X12918277Y-13375888D01*
X12918277Y-13375888D02*
X12908753Y-13394936D01*
X12908753Y-13394936D02*
X12899229Y-13404460D01*
X12899229Y-13404460D02*
X12880182Y-13413984D01*
X12880182Y-13413984D02*
X12861134Y-13413984D01*
X12861134Y-13413984D02*
X12842086Y-13404460D01*
X12842086Y-13404460D02*
X12832563Y-13394936D01*
X12832563Y-13394936D02*
X12823039Y-13375888D01*
X12823039Y-13375888D02*
X12813515Y-13337793D01*
X12813515Y-13337793D02*
X12813515Y-13290174D01*
X12813515Y-13290174D02*
X12823039Y-13252079D01*
X12823039Y-13252079D02*
X12832563Y-13233031D01*
X12832563Y-13233031D02*
X12842086Y-13223508D01*
X12842086Y-13223508D02*
X12861134Y-13213984D01*
X13013515Y-13394936D02*
X13023039Y-13404460D01*
X13023039Y-13404460D02*
X13013515Y-13413984D01*
X13013515Y-13413984D02*
X13003991Y-13404460D01*
X13003991Y-13404460D02*
X13013515Y-13394936D01*
X13013515Y-13394936D02*
X13013515Y-13413984D01*
X13146848Y-13213984D02*
X13165896Y-13213984D01*
X13165896Y-13213984D02*
X13184944Y-13223508D01*
X13184944Y-13223508D02*
X13194467Y-13233031D01*
X13194467Y-13233031D02*
X13203991Y-13252079D01*
X13203991Y-13252079D02*
X13213515Y-13290174D01*
X13213515Y-13290174D02*
X13213515Y-13337793D01*
X13213515Y-13337793D02*
X13203991Y-13375888D01*
X13203991Y-13375888D02*
X13194467Y-13394936D01*
X13194467Y-13394936D02*
X13184944Y-13404460D01*
X13184944Y-13404460D02*
X13165896Y-13413984D01*
X13165896Y-13413984D02*
X13146848Y-13413984D01*
X13146848Y-13413984D02*
X13127801Y-13404460D01*
X13127801Y-13404460D02*
X13118277Y-13394936D01*
X13118277Y-13394936D02*
X13108753Y-13375888D01*
X13108753Y-13375888D02*
X13099229Y-13337793D01*
X13099229Y-13337793D02*
X13099229Y-13290174D01*
X13099229Y-13290174D02*
X13108753Y-13252079D01*
X13108753Y-13252079D02*
X13118277Y-13233031D01*
X13118277Y-13233031D02*
X13127801Y-13223508D01*
X13127801Y-13223508D02*
X13146848Y-13213984D01*
X13280182Y-13213984D02*
X13403991Y-13213984D01*
X13403991Y-13213984D02*
X13337325Y-13290174D01*
X13337325Y-13290174D02*
X13365896Y-13290174D01*
X13365896Y-13290174D02*
X13384944Y-13299698D01*
X13384944Y-13299698D02*
X13394467Y-13309222D01*
X13394467Y-13309222D02*
X13403991Y-13328269D01*
X13403991Y-13328269D02*
X13403991Y-13375888D01*
X13403991Y-13375888D02*
X13394467Y-13394936D01*
X13394467Y-13394936D02*
X13384944Y-13404460D01*
X13384944Y-13404460D02*
X13365896Y-13413984D01*
X13365896Y-13413984D02*
X13308753Y-13413984D01*
X13308753Y-13413984D02*
X13289706Y-13404460D01*
X13289706Y-13404460D02*
X13280182Y-13394936D01*
X13594467Y-13413984D02*
X13480182Y-13413984D01*
X13537325Y-13413984D02*
X13537325Y-13213984D01*
X13537325Y-13213984D02*
X13518277Y-13242555D01*
X13518277Y-13242555D02*
X13499229Y-13261603D01*
X13499229Y-13261603D02*
X13480182Y-13271127D01*
X13775420Y-13213984D02*
X13680182Y-13213984D01*
X13680182Y-13213984D02*
X13670658Y-13309222D01*
X13670658Y-13309222D02*
X13680182Y-13299698D01*
X13680182Y-13299698D02*
X13699229Y-13290174D01*
X13699229Y-13290174D02*
X13746848Y-13290174D01*
X13746848Y-13290174D02*
X13765896Y-13299698D01*
X13765896Y-13299698D02*
X13775420Y-13309222D01*
X13775420Y-13309222D02*
X13784944Y-13328269D01*
X13784944Y-13328269D02*
X13784944Y-13375888D01*
X13784944Y-13375888D02*
X13775420Y-13394936D01*
X13775420Y-13394936D02*
X13765896Y-13404460D01*
X13765896Y-13404460D02*
X13746848Y-13413984D01*
X13746848Y-13413984D02*
X13699229Y-13413984D01*
X13699229Y-13413984D02*
X13680182Y-13404460D01*
X13680182Y-13404460D02*
X13670658Y-13394936D01*
X13861134Y-13213984D02*
X13861134Y-13252079D01*
X13937325Y-13213984D02*
X13937325Y-13252079D01*
X14232563Y-13490174D02*
X14223039Y-13480650D01*
X14223039Y-13480650D02*
X14203991Y-13452079D01*
X14203991Y-13452079D02*
X14194468Y-13433031D01*
X14194468Y-13433031D02*
X14184944Y-13404460D01*
X14184944Y-13404460D02*
X14175420Y-13356841D01*
X14175420Y-13356841D02*
X14175420Y-13318746D01*
X14175420Y-13318746D02*
X14184944Y-13271127D01*
X14184944Y-13271127D02*
X14194468Y-13242555D01*
X14194468Y-13242555D02*
X14203991Y-13223508D01*
X14203991Y-13223508D02*
X14223039Y-13194936D01*
X14223039Y-13194936D02*
X14232563Y-13185412D01*
X14394468Y-13280650D02*
X14394468Y-13413984D01*
X14346848Y-13204460D02*
X14299229Y-13347317D01*
X14299229Y-13347317D02*
X14423039Y-13347317D01*
X14651610Y-13413984D02*
X14651610Y-13213984D01*
X14737325Y-13413984D02*
X14737325Y-13309222D01*
X14737325Y-13309222D02*
X14727801Y-13290174D01*
X14727801Y-13290174D02*
X14708753Y-13280650D01*
X14708753Y-13280650D02*
X14680182Y-13280650D01*
X14680182Y-13280650D02*
X14661134Y-13290174D01*
X14661134Y-13290174D02*
X14651610Y-13299698D01*
X14861134Y-13413984D02*
X14842087Y-13404460D01*
X14842087Y-13404460D02*
X14832563Y-13394936D01*
X14832563Y-13394936D02*
X14823039Y-13375888D01*
X14823039Y-13375888D02*
X14823039Y-13318746D01*
X14823039Y-13318746D02*
X14832563Y-13299698D01*
X14832563Y-13299698D02*
X14842087Y-13290174D01*
X14842087Y-13290174D02*
X14861134Y-13280650D01*
X14861134Y-13280650D02*
X14889706Y-13280650D01*
X14889706Y-13280650D02*
X14908753Y-13290174D01*
X14908753Y-13290174D02*
X14918277Y-13299698D01*
X14918277Y-13299698D02*
X14927801Y-13318746D01*
X14927801Y-13318746D02*
X14927801Y-13375888D01*
X14927801Y-13375888D02*
X14918277Y-13394936D01*
X14918277Y-13394936D02*
X14908753Y-13404460D01*
X14908753Y-13404460D02*
X14889706Y-13413984D01*
X14889706Y-13413984D02*
X14861134Y-13413984D01*
X15042087Y-13413984D02*
X15023039Y-13404460D01*
X15023039Y-13404460D02*
X15013515Y-13385412D01*
X15013515Y-13385412D02*
X15013515Y-13213984D01*
X15194468Y-13404460D02*
X15175420Y-13413984D01*
X15175420Y-13413984D02*
X15137325Y-13413984D01*
X15137325Y-13413984D02*
X15118277Y-13404460D01*
X15118277Y-13404460D02*
X15108753Y-13385412D01*
X15108753Y-13385412D02*
X15108753Y-13309222D01*
X15108753Y-13309222D02*
X15118277Y-13290174D01*
X15118277Y-13290174D02*
X15137325Y-13280650D01*
X15137325Y-13280650D02*
X15175420Y-13280650D01*
X15175420Y-13280650D02*
X15194468Y-13290174D01*
X15194468Y-13290174D02*
X15203991Y-13309222D01*
X15203991Y-13309222D02*
X15203991Y-13328269D01*
X15203991Y-13328269D02*
X15108753Y-13347317D01*
X15280182Y-13404460D02*
X15299230Y-13413984D01*
X15299230Y-13413984D02*
X15337325Y-13413984D01*
X15337325Y-13413984D02*
X15356372Y-13404460D01*
X15356372Y-13404460D02*
X15365896Y-13385412D01*
X15365896Y-13385412D02*
X15365896Y-13375888D01*
X15365896Y-13375888D02*
X15356372Y-13356841D01*
X15356372Y-13356841D02*
X15337325Y-13347317D01*
X15337325Y-13347317D02*
X15308753Y-13347317D01*
X15308753Y-13347317D02*
X15289706Y-13337793D01*
X15289706Y-13337793D02*
X15280182Y-13318746D01*
X15280182Y-13318746D02*
X15280182Y-13309222D01*
X15280182Y-13309222D02*
X15289706Y-13290174D01*
X15289706Y-13290174D02*
X15308753Y-13280650D01*
X15308753Y-13280650D02*
X15337325Y-13280650D01*
X15337325Y-13280650D02*
X15356372Y-13290174D01*
X15432563Y-13490174D02*
X15442087Y-13480650D01*
X15442087Y-13480650D02*
X15461134Y-13452079D01*
X15461134Y-13452079D02*
X15470658Y-13433031D01*
X15470658Y-13433031D02*
X15480182Y-13404460D01*
X15480182Y-13404460D02*
X15489706Y-13356841D01*
X15489706Y-13356841D02*
X15489706Y-13318746D01*
X15489706Y-13318746D02*
X15480182Y-13271127D01*
X15480182Y-13271127D02*
X15470658Y-13242555D01*
X15470658Y-13242555D02*
X15461134Y-13223508D01*
X15461134Y-13223508D02*
X15442087Y-13194936D01*
X15442087Y-13194936D02*
X15432563Y-13185412D01*
D12*
X10657500Y-13586500D02*
G75*
G02*
X10557500Y-13586500I-50000J0D01*
G01*
X10557500Y-13586500D02*
G75*
G02*
X10657500Y-13586500I50000J0D01*
G01*
D11*
X11023039Y-13677984D02*
X10908753Y-13677984D01*
X10965896Y-13677984D02*
X10965896Y-13477984D01*
X10965896Y-13477984D02*
X10946848Y-13506555D01*
X10946848Y-13506555D02*
X10927801Y-13525603D01*
X10927801Y-13525603D02*
X10908753Y-13535127D01*
X11108753Y-13658936D02*
X11118277Y-13668460D01*
X11118277Y-13668460D02*
X11108753Y-13677984D01*
X11108753Y-13677984D02*
X11099229Y-13668460D01*
X11099229Y-13668460D02*
X11108753Y-13658936D01*
X11108753Y-13658936D02*
X11108753Y-13677984D01*
X11242086Y-13477984D02*
X11261134Y-13477984D01*
X11261134Y-13477984D02*
X11280182Y-13487508D01*
X11280182Y-13487508D02*
X11289705Y-13497031D01*
X11289705Y-13497031D02*
X11299229Y-13516079D01*
X11299229Y-13516079D02*
X11308753Y-13554174D01*
X11308753Y-13554174D02*
X11308753Y-13601793D01*
X11308753Y-13601793D02*
X11299229Y-13639888D01*
X11299229Y-13639888D02*
X11289705Y-13658936D01*
X11289705Y-13658936D02*
X11280182Y-13668460D01*
X11280182Y-13668460D02*
X11261134Y-13677984D01*
X11261134Y-13677984D02*
X11242086Y-13677984D01*
X11242086Y-13677984D02*
X11223039Y-13668460D01*
X11223039Y-13668460D02*
X11213515Y-13658936D01*
X11213515Y-13658936D02*
X11203991Y-13639888D01*
X11203991Y-13639888D02*
X11194467Y-13601793D01*
X11194467Y-13601793D02*
X11194467Y-13554174D01*
X11194467Y-13554174D02*
X11203991Y-13516079D01*
X11203991Y-13516079D02*
X11213515Y-13497031D01*
X11213515Y-13497031D02*
X11223039Y-13487508D01*
X11223039Y-13487508D02*
X11242086Y-13477984D01*
X11432562Y-13477984D02*
X11451610Y-13477984D01*
X11451610Y-13477984D02*
X11470658Y-13487508D01*
X11470658Y-13487508D02*
X11480182Y-13497031D01*
X11480182Y-13497031D02*
X11489705Y-13516079D01*
X11489705Y-13516079D02*
X11499229Y-13554174D01*
X11499229Y-13554174D02*
X11499229Y-13601793D01*
X11499229Y-13601793D02*
X11489705Y-13639888D01*
X11489705Y-13639888D02*
X11480182Y-13658936D01*
X11480182Y-13658936D02*
X11470658Y-13668460D01*
X11470658Y-13668460D02*
X11451610Y-13677984D01*
X11451610Y-13677984D02*
X11432562Y-13677984D01*
X11432562Y-13677984D02*
X11413515Y-13668460D01*
X11413515Y-13668460D02*
X11403991Y-13658936D01*
X11403991Y-13658936D02*
X11394467Y-13639888D01*
X11394467Y-13639888D02*
X11384943Y-13601793D01*
X11384943Y-13601793D02*
X11384943Y-13554174D01*
X11384943Y-13554174D02*
X11394467Y-13516079D01*
X11394467Y-13516079D02*
X11403991Y-13497031D01*
X11403991Y-13497031D02*
X11413515Y-13487508D01*
X11413515Y-13487508D02*
X11432562Y-13477984D01*
X11623039Y-13477984D02*
X11642086Y-13477984D01*
X11642086Y-13477984D02*
X11661134Y-13487508D01*
X11661134Y-13487508D02*
X11670658Y-13497031D01*
X11670658Y-13497031D02*
X11680182Y-13516079D01*
X11680182Y-13516079D02*
X11689705Y-13554174D01*
X11689705Y-13554174D02*
X11689705Y-13601793D01*
X11689705Y-13601793D02*
X11680182Y-13639888D01*
X11680182Y-13639888D02*
X11670658Y-13658936D01*
X11670658Y-13658936D02*
X11661134Y-13668460D01*
X11661134Y-13668460D02*
X11642086Y-13677984D01*
X11642086Y-13677984D02*
X11623039Y-13677984D01*
X11623039Y-13677984D02*
X11603991Y-13668460D01*
X11603991Y-13668460D02*
X11594467Y-13658936D01*
X11594467Y-13658936D02*
X11584943Y-13639888D01*
X11584943Y-13639888D02*
X11575420Y-13601793D01*
X11575420Y-13601793D02*
X11575420Y-13554174D01*
X11575420Y-13554174D02*
X11584943Y-13516079D01*
X11584943Y-13516079D02*
X11594467Y-13497031D01*
X11594467Y-13497031D02*
X11603991Y-13487508D01*
X11603991Y-13487508D02*
X11623039Y-13477984D01*
X11775420Y-13677984D02*
X11775420Y-13544650D01*
X11775420Y-13563698D02*
X11784943Y-13554174D01*
X11784943Y-13554174D02*
X11803991Y-13544650D01*
X11803991Y-13544650D02*
X11832563Y-13544650D01*
X11832563Y-13544650D02*
X11851610Y-13554174D01*
X11851610Y-13554174D02*
X11861134Y-13573222D01*
X11861134Y-13573222D02*
X11861134Y-13677984D01*
X11861134Y-13573222D02*
X11870658Y-13554174D01*
X11870658Y-13554174D02*
X11889705Y-13544650D01*
X11889705Y-13544650D02*
X11918277Y-13544650D01*
X11918277Y-13544650D02*
X11937324Y-13554174D01*
X11937324Y-13554174D02*
X11946848Y-13573222D01*
X11946848Y-13573222D02*
X11946848Y-13677984D01*
X12042086Y-13677984D02*
X12042086Y-13544650D01*
X12042086Y-13563698D02*
X12051610Y-13554174D01*
X12051610Y-13554174D02*
X12070658Y-13544650D01*
X12070658Y-13544650D02*
X12099229Y-13544650D01*
X12099229Y-13544650D02*
X12118277Y-13554174D01*
X12118277Y-13554174D02*
X12127801Y-13573222D01*
X12127801Y-13573222D02*
X12127801Y-13677984D01*
X12127801Y-13573222D02*
X12137324Y-13554174D01*
X12137324Y-13554174D02*
X12156372Y-13544650D01*
X12156372Y-13544650D02*
X12184943Y-13544650D01*
X12184943Y-13544650D02*
X12203991Y-13554174D01*
X12203991Y-13554174D02*
X12213515Y-13573222D01*
X12213515Y-13573222D02*
X12213515Y-13677984D01*
X12603991Y-13468460D02*
X12432563Y-13725603D01*
X12861134Y-13477984D02*
X12880182Y-13477984D01*
X12880182Y-13477984D02*
X12899229Y-13487508D01*
X12899229Y-13487508D02*
X12908753Y-13497031D01*
X12908753Y-13497031D02*
X12918277Y-13516079D01*
X12918277Y-13516079D02*
X12927801Y-13554174D01*
X12927801Y-13554174D02*
X12927801Y-13601793D01*
X12927801Y-13601793D02*
X12918277Y-13639888D01*
X12918277Y-13639888D02*
X12908753Y-13658936D01*
X12908753Y-13658936D02*
X12899229Y-13668460D01*
X12899229Y-13668460D02*
X12880182Y-13677984D01*
X12880182Y-13677984D02*
X12861134Y-13677984D01*
X12861134Y-13677984D02*
X12842086Y-13668460D01*
X12842086Y-13668460D02*
X12832563Y-13658936D01*
X12832563Y-13658936D02*
X12823039Y-13639888D01*
X12823039Y-13639888D02*
X12813515Y-13601793D01*
X12813515Y-13601793D02*
X12813515Y-13554174D01*
X12813515Y-13554174D02*
X12823039Y-13516079D01*
X12823039Y-13516079D02*
X12832563Y-13497031D01*
X12832563Y-13497031D02*
X12842086Y-13487508D01*
X12842086Y-13487508D02*
X12861134Y-13477984D01*
X13013515Y-13658936D02*
X13023039Y-13668460D01*
X13023039Y-13668460D02*
X13013515Y-13677984D01*
X13013515Y-13677984D02*
X13003991Y-13668460D01*
X13003991Y-13668460D02*
X13013515Y-13658936D01*
X13013515Y-13658936D02*
X13013515Y-13677984D01*
X13146848Y-13477984D02*
X13165896Y-13477984D01*
X13165896Y-13477984D02*
X13184944Y-13487508D01*
X13184944Y-13487508D02*
X13194467Y-13497031D01*
X13194467Y-13497031D02*
X13203991Y-13516079D01*
X13203991Y-13516079D02*
X13213515Y-13554174D01*
X13213515Y-13554174D02*
X13213515Y-13601793D01*
X13213515Y-13601793D02*
X13203991Y-13639888D01*
X13203991Y-13639888D02*
X13194467Y-13658936D01*
X13194467Y-13658936D02*
X13184944Y-13668460D01*
X13184944Y-13668460D02*
X13165896Y-13677984D01*
X13165896Y-13677984D02*
X13146848Y-13677984D01*
X13146848Y-13677984D02*
X13127801Y-13668460D01*
X13127801Y-13668460D02*
X13118277Y-13658936D01*
X13118277Y-13658936D02*
X13108753Y-13639888D01*
X13108753Y-13639888D02*
X13099229Y-13601793D01*
X13099229Y-13601793D02*
X13099229Y-13554174D01*
X13099229Y-13554174D02*
X13108753Y-13516079D01*
X13108753Y-13516079D02*
X13118277Y-13497031D01*
X13118277Y-13497031D02*
X13127801Y-13487508D01*
X13127801Y-13487508D02*
X13146848Y-13477984D01*
X13280182Y-13477984D02*
X13403991Y-13477984D01*
X13403991Y-13477984D02*
X13337325Y-13554174D01*
X13337325Y-13554174D02*
X13365896Y-13554174D01*
X13365896Y-13554174D02*
X13384944Y-13563698D01*
X13384944Y-13563698D02*
X13394467Y-13573222D01*
X13394467Y-13573222D02*
X13403991Y-13592269D01*
X13403991Y-13592269D02*
X13403991Y-13639888D01*
X13403991Y-13639888D02*
X13394467Y-13658936D01*
X13394467Y-13658936D02*
X13384944Y-13668460D01*
X13384944Y-13668460D02*
X13365896Y-13677984D01*
X13365896Y-13677984D02*
X13308753Y-13677984D01*
X13308753Y-13677984D02*
X13289706Y-13668460D01*
X13289706Y-13668460D02*
X13280182Y-13658936D01*
X13499229Y-13677984D02*
X13537325Y-13677984D01*
X13537325Y-13677984D02*
X13556372Y-13668460D01*
X13556372Y-13668460D02*
X13565896Y-13658936D01*
X13565896Y-13658936D02*
X13584944Y-13630365D01*
X13584944Y-13630365D02*
X13594467Y-13592269D01*
X13594467Y-13592269D02*
X13594467Y-13516079D01*
X13594467Y-13516079D02*
X13584944Y-13497031D01*
X13584944Y-13497031D02*
X13575420Y-13487508D01*
X13575420Y-13487508D02*
X13556372Y-13477984D01*
X13556372Y-13477984D02*
X13518277Y-13477984D01*
X13518277Y-13477984D02*
X13499229Y-13487508D01*
X13499229Y-13487508D02*
X13489706Y-13497031D01*
X13489706Y-13497031D02*
X13480182Y-13516079D01*
X13480182Y-13516079D02*
X13480182Y-13563698D01*
X13480182Y-13563698D02*
X13489706Y-13582746D01*
X13489706Y-13582746D02*
X13499229Y-13592269D01*
X13499229Y-13592269D02*
X13518277Y-13601793D01*
X13518277Y-13601793D02*
X13556372Y-13601793D01*
X13556372Y-13601793D02*
X13575420Y-13592269D01*
X13575420Y-13592269D02*
X13584944Y-13582746D01*
X13584944Y-13582746D02*
X13594467Y-13563698D01*
X13765896Y-13544650D02*
X13765896Y-13677984D01*
X13718277Y-13468460D02*
X13670658Y-13611317D01*
X13670658Y-13611317D02*
X13794467Y-13611317D01*
X13861134Y-13477984D02*
X13861134Y-13516079D01*
X13937325Y-13477984D02*
X13937325Y-13516079D01*
X14232563Y-13754174D02*
X14223039Y-13744650D01*
X14223039Y-13744650D02*
X14203991Y-13716079D01*
X14203991Y-13716079D02*
X14194468Y-13697031D01*
X14194468Y-13697031D02*
X14184944Y-13668460D01*
X14184944Y-13668460D02*
X14175420Y-13620841D01*
X14175420Y-13620841D02*
X14175420Y-13582746D01*
X14175420Y-13582746D02*
X14184944Y-13535127D01*
X14184944Y-13535127D02*
X14194468Y-13506555D01*
X14194468Y-13506555D02*
X14203991Y-13487508D01*
X14203991Y-13487508D02*
X14223039Y-13458936D01*
X14223039Y-13458936D02*
X14232563Y-13449412D01*
X14299229Y-13497031D02*
X14308753Y-13487508D01*
X14308753Y-13487508D02*
X14327801Y-13477984D01*
X14327801Y-13477984D02*
X14375420Y-13477984D01*
X14375420Y-13477984D02*
X14394468Y-13487508D01*
X14394468Y-13487508D02*
X14403991Y-13497031D01*
X14403991Y-13497031D02*
X14413515Y-13516079D01*
X14413515Y-13516079D02*
X14413515Y-13535127D01*
X14413515Y-13535127D02*
X14403991Y-13563698D01*
X14403991Y-13563698D02*
X14289706Y-13677984D01*
X14289706Y-13677984D02*
X14413515Y-13677984D01*
X14508753Y-13677984D02*
X14546848Y-13677984D01*
X14546848Y-13677984D02*
X14565896Y-13668460D01*
X14565896Y-13668460D02*
X14575420Y-13658936D01*
X14575420Y-13658936D02*
X14594468Y-13630365D01*
X14594468Y-13630365D02*
X14603991Y-13592269D01*
X14603991Y-13592269D02*
X14603991Y-13516079D01*
X14603991Y-13516079D02*
X14594468Y-13497031D01*
X14594468Y-13497031D02*
X14584944Y-13487508D01*
X14584944Y-13487508D02*
X14565896Y-13477984D01*
X14565896Y-13477984D02*
X14527801Y-13477984D01*
X14527801Y-13477984D02*
X14508753Y-13487508D01*
X14508753Y-13487508D02*
X14499229Y-13497031D01*
X14499229Y-13497031D02*
X14489706Y-13516079D01*
X14489706Y-13516079D02*
X14489706Y-13563698D01*
X14489706Y-13563698D02*
X14499229Y-13582746D01*
X14499229Y-13582746D02*
X14508753Y-13592269D01*
X14508753Y-13592269D02*
X14527801Y-13601793D01*
X14527801Y-13601793D02*
X14565896Y-13601793D01*
X14565896Y-13601793D02*
X14584944Y-13592269D01*
X14584944Y-13592269D02*
X14594468Y-13582746D01*
X14594468Y-13582746D02*
X14603991Y-13563698D01*
X14842087Y-13677984D02*
X14842087Y-13477984D01*
X14927801Y-13677984D02*
X14927801Y-13573222D01*
X14927801Y-13573222D02*
X14918277Y-13554174D01*
X14918277Y-13554174D02*
X14899230Y-13544650D01*
X14899230Y-13544650D02*
X14870658Y-13544650D01*
X14870658Y-13544650D02*
X14851610Y-13554174D01*
X14851610Y-13554174D02*
X14842087Y-13563698D01*
X15051610Y-13677984D02*
X15032563Y-13668460D01*
X15032563Y-13668460D02*
X15023039Y-13658936D01*
X15023039Y-13658936D02*
X15013515Y-13639888D01*
X15013515Y-13639888D02*
X15013515Y-13582746D01*
X15013515Y-13582746D02*
X15023039Y-13563698D01*
X15023039Y-13563698D02*
X15032563Y-13554174D01*
X15032563Y-13554174D02*
X15051610Y-13544650D01*
X15051610Y-13544650D02*
X15080182Y-13544650D01*
X15080182Y-13544650D02*
X15099230Y-13554174D01*
X15099230Y-13554174D02*
X15108753Y-13563698D01*
X15108753Y-13563698D02*
X15118277Y-13582746D01*
X15118277Y-13582746D02*
X15118277Y-13639888D01*
X15118277Y-13639888D02*
X15108753Y-13658936D01*
X15108753Y-13658936D02*
X15099230Y-13668460D01*
X15099230Y-13668460D02*
X15080182Y-13677984D01*
X15080182Y-13677984D02*
X15051610Y-13677984D01*
X15232563Y-13677984D02*
X15213515Y-13668460D01*
X15213515Y-13668460D02*
X15203991Y-13649412D01*
X15203991Y-13649412D02*
X15203991Y-13477984D01*
X15384944Y-13668460D02*
X15365896Y-13677984D01*
X15365896Y-13677984D02*
X15327801Y-13677984D01*
X15327801Y-13677984D02*
X15308753Y-13668460D01*
X15308753Y-13668460D02*
X15299230Y-13649412D01*
X15299230Y-13649412D02*
X15299230Y-13573222D01*
X15299230Y-13573222D02*
X15308753Y-13554174D01*
X15308753Y-13554174D02*
X15327801Y-13544650D01*
X15327801Y-13544650D02*
X15365896Y-13544650D01*
X15365896Y-13544650D02*
X15384944Y-13554174D01*
X15384944Y-13554174D02*
X15394468Y-13573222D01*
X15394468Y-13573222D02*
X15394468Y-13592269D01*
X15394468Y-13592269D02*
X15299230Y-13611317D01*
X15470658Y-13668460D02*
X15489706Y-13677984D01*
X15489706Y-13677984D02*
X15527801Y-13677984D01*
X15527801Y-13677984D02*
X15546849Y-13668460D01*
X15546849Y-13668460D02*
X15556372Y-13649412D01*
X15556372Y-13649412D02*
X15556372Y-13639888D01*
X15556372Y-13639888D02*
X15546849Y-13620841D01*
X15546849Y-13620841D02*
X15527801Y-13611317D01*
X15527801Y-13611317D02*
X15499230Y-13611317D01*
X15499230Y-13611317D02*
X15480182Y-13601793D01*
X15480182Y-13601793D02*
X15470658Y-13582746D01*
X15470658Y-13582746D02*
X15470658Y-13573222D01*
X15470658Y-13573222D02*
X15480182Y-13554174D01*
X15480182Y-13554174D02*
X15499230Y-13544650D01*
X15499230Y-13544650D02*
X15527801Y-13544650D01*
X15527801Y-13544650D02*
X15546849Y-13554174D01*
X15794468Y-13601793D02*
X15946849Y-13601793D01*
X15870658Y-13677984D02*
X15870658Y-13525603D01*
X16175420Y-13477984D02*
X16299230Y-13477984D01*
X16299230Y-13477984D02*
X16232563Y-13554174D01*
X16232563Y-13554174D02*
X16261134Y-13554174D01*
X16261134Y-13554174D02*
X16280182Y-13563698D01*
X16280182Y-13563698D02*
X16289706Y-13573222D01*
X16289706Y-13573222D02*
X16299230Y-13592269D01*
X16299230Y-13592269D02*
X16299230Y-13639888D01*
X16299230Y-13639888D02*
X16289706Y-13658936D01*
X16289706Y-13658936D02*
X16280182Y-13668460D01*
X16280182Y-13668460D02*
X16261134Y-13677984D01*
X16261134Y-13677984D02*
X16203992Y-13677984D01*
X16203992Y-13677984D02*
X16184944Y-13668460D01*
X16184944Y-13668460D02*
X16175420Y-13658936D01*
X16527801Y-13668460D02*
X16546849Y-13677984D01*
X16546849Y-13677984D02*
X16584944Y-13677984D01*
X16584944Y-13677984D02*
X16603992Y-13668460D01*
X16603992Y-13668460D02*
X16613515Y-13649412D01*
X16613515Y-13649412D02*
X16613515Y-13639888D01*
X16613515Y-13639888D02*
X16603992Y-13620841D01*
X16603992Y-13620841D02*
X16584944Y-13611317D01*
X16584944Y-13611317D02*
X16556373Y-13611317D01*
X16556373Y-13611317D02*
X16537325Y-13601793D01*
X16537325Y-13601793D02*
X16527801Y-13582746D01*
X16527801Y-13582746D02*
X16527801Y-13573222D01*
X16527801Y-13573222D02*
X16537325Y-13554174D01*
X16537325Y-13554174D02*
X16556373Y-13544650D01*
X16556373Y-13544650D02*
X16584944Y-13544650D01*
X16584944Y-13544650D02*
X16603992Y-13554174D01*
X16727801Y-13677984D02*
X16708754Y-13668460D01*
X16708754Y-13668460D02*
X16699230Y-13649412D01*
X16699230Y-13649412D02*
X16699230Y-13477984D01*
X16832563Y-13677984D02*
X16813516Y-13668460D01*
X16813516Y-13668460D02*
X16803992Y-13658936D01*
X16803992Y-13658936D02*
X16794468Y-13639888D01*
X16794468Y-13639888D02*
X16794468Y-13582746D01*
X16794468Y-13582746D02*
X16803992Y-13563698D01*
X16803992Y-13563698D02*
X16813516Y-13554174D01*
X16813516Y-13554174D02*
X16832563Y-13544650D01*
X16832563Y-13544650D02*
X16861135Y-13544650D01*
X16861135Y-13544650D02*
X16880182Y-13554174D01*
X16880182Y-13554174D02*
X16889706Y-13563698D01*
X16889706Y-13563698D02*
X16899230Y-13582746D01*
X16899230Y-13582746D02*
X16899230Y-13639888D01*
X16899230Y-13639888D02*
X16889706Y-13658936D01*
X16889706Y-13658936D02*
X16880182Y-13668460D01*
X16880182Y-13668460D02*
X16861135Y-13677984D01*
X16861135Y-13677984D02*
X16832563Y-13677984D01*
X16956373Y-13544650D02*
X17032563Y-13544650D01*
X16984944Y-13477984D02*
X16984944Y-13649412D01*
X16984944Y-13649412D02*
X16994468Y-13668460D01*
X16994468Y-13668460D02*
X17013516Y-13677984D01*
X17013516Y-13677984D02*
X17032563Y-13677984D01*
X17089706Y-13668460D02*
X17108754Y-13677984D01*
X17108754Y-13677984D02*
X17146849Y-13677984D01*
X17146849Y-13677984D02*
X17165897Y-13668460D01*
X17165897Y-13668460D02*
X17175420Y-13649412D01*
X17175420Y-13649412D02*
X17175420Y-13639888D01*
X17175420Y-13639888D02*
X17165897Y-13620841D01*
X17165897Y-13620841D02*
X17146849Y-13611317D01*
X17146849Y-13611317D02*
X17118277Y-13611317D01*
X17118277Y-13611317D02*
X17099230Y-13601793D01*
X17099230Y-13601793D02*
X17089706Y-13582746D01*
X17089706Y-13582746D02*
X17089706Y-13573222D01*
X17089706Y-13573222D02*
X17099230Y-13554174D01*
X17099230Y-13554174D02*
X17118277Y-13544650D01*
X17118277Y-13544650D02*
X17146849Y-13544650D01*
X17146849Y-13544650D02*
X17165897Y-13554174D01*
X17242087Y-13754174D02*
X17251611Y-13744650D01*
X17251611Y-13744650D02*
X17270658Y-13716079D01*
X17270658Y-13716079D02*
X17280182Y-13697031D01*
X17280182Y-13697031D02*
X17289706Y-13668460D01*
X17289706Y-13668460D02*
X17299230Y-13620841D01*
X17299230Y-13620841D02*
X17299230Y-13582746D01*
X17299230Y-13582746D02*
X17289706Y-13535127D01*
X17289706Y-13535127D02*
X17280182Y-13506555D01*
X17280182Y-13506555D02*
X17270658Y-13487508D01*
X17270658Y-13487508D02*
X17251611Y-13458936D01*
X17251611Y-13458936D02*
X17242087Y-13449412D01*
D13*
X10606500Y-13799500D02*
X10606500Y-13901500D01*
X10555500Y-13850500D02*
X10657500Y-13850500D01*
D11*
X11023039Y-13941984D02*
X10908753Y-13941984D01*
X10965896Y-13941984D02*
X10965896Y-13741984D01*
X10965896Y-13741984D02*
X10946848Y-13770555D01*
X10946848Y-13770555D02*
X10927801Y-13789603D01*
X10927801Y-13789603D02*
X10908753Y-13799127D01*
X11108753Y-13922936D02*
X11118277Y-13932460D01*
X11118277Y-13932460D02*
X11108753Y-13941984D01*
X11108753Y-13941984D02*
X11099229Y-13932460D01*
X11099229Y-13932460D02*
X11108753Y-13922936D01*
X11108753Y-13922936D02*
X11108753Y-13941984D01*
X11242086Y-13741984D02*
X11261134Y-13741984D01*
X11261134Y-13741984D02*
X11280182Y-13751508D01*
X11280182Y-13751508D02*
X11289705Y-13761031D01*
X11289705Y-13761031D02*
X11299229Y-13780079D01*
X11299229Y-13780079D02*
X11308753Y-13818174D01*
X11308753Y-13818174D02*
X11308753Y-13865793D01*
X11308753Y-13865793D02*
X11299229Y-13903888D01*
X11299229Y-13903888D02*
X11289705Y-13922936D01*
X11289705Y-13922936D02*
X11280182Y-13932460D01*
X11280182Y-13932460D02*
X11261134Y-13941984D01*
X11261134Y-13941984D02*
X11242086Y-13941984D01*
X11242086Y-13941984D02*
X11223039Y-13932460D01*
X11223039Y-13932460D02*
X11213515Y-13922936D01*
X11213515Y-13922936D02*
X11203991Y-13903888D01*
X11203991Y-13903888D02*
X11194467Y-13865793D01*
X11194467Y-13865793D02*
X11194467Y-13818174D01*
X11194467Y-13818174D02*
X11203991Y-13780079D01*
X11203991Y-13780079D02*
X11213515Y-13761031D01*
X11213515Y-13761031D02*
X11223039Y-13751508D01*
X11223039Y-13751508D02*
X11242086Y-13741984D01*
X11384943Y-13761031D02*
X11394467Y-13751508D01*
X11394467Y-13751508D02*
X11413515Y-13741984D01*
X11413515Y-13741984D02*
X11461134Y-13741984D01*
X11461134Y-13741984D02*
X11480182Y-13751508D01*
X11480182Y-13751508D02*
X11489705Y-13761031D01*
X11489705Y-13761031D02*
X11499229Y-13780079D01*
X11499229Y-13780079D02*
X11499229Y-13799127D01*
X11499229Y-13799127D02*
X11489705Y-13827698D01*
X11489705Y-13827698D02*
X11375420Y-13941984D01*
X11375420Y-13941984D02*
X11499229Y-13941984D01*
X11623039Y-13741984D02*
X11642086Y-13741984D01*
X11642086Y-13741984D02*
X11661134Y-13751508D01*
X11661134Y-13751508D02*
X11670658Y-13761031D01*
X11670658Y-13761031D02*
X11680182Y-13780079D01*
X11680182Y-13780079D02*
X11689705Y-13818174D01*
X11689705Y-13818174D02*
X11689705Y-13865793D01*
X11689705Y-13865793D02*
X11680182Y-13903888D01*
X11680182Y-13903888D02*
X11670658Y-13922936D01*
X11670658Y-13922936D02*
X11661134Y-13932460D01*
X11661134Y-13932460D02*
X11642086Y-13941984D01*
X11642086Y-13941984D02*
X11623039Y-13941984D01*
X11623039Y-13941984D02*
X11603991Y-13932460D01*
X11603991Y-13932460D02*
X11594467Y-13922936D01*
X11594467Y-13922936D02*
X11584943Y-13903888D01*
X11584943Y-13903888D02*
X11575420Y-13865793D01*
X11575420Y-13865793D02*
X11575420Y-13818174D01*
X11575420Y-13818174D02*
X11584943Y-13780079D01*
X11584943Y-13780079D02*
X11594467Y-13761031D01*
X11594467Y-13761031D02*
X11603991Y-13751508D01*
X11603991Y-13751508D02*
X11623039Y-13741984D01*
X11775420Y-13941984D02*
X11775420Y-13808650D01*
X11775420Y-13827698D02*
X11784943Y-13818174D01*
X11784943Y-13818174D02*
X11803991Y-13808650D01*
X11803991Y-13808650D02*
X11832563Y-13808650D01*
X11832563Y-13808650D02*
X11851610Y-13818174D01*
X11851610Y-13818174D02*
X11861134Y-13837222D01*
X11861134Y-13837222D02*
X11861134Y-13941984D01*
X11861134Y-13837222D02*
X11870658Y-13818174D01*
X11870658Y-13818174D02*
X11889705Y-13808650D01*
X11889705Y-13808650D02*
X11918277Y-13808650D01*
X11918277Y-13808650D02*
X11937324Y-13818174D01*
X11937324Y-13818174D02*
X11946848Y-13837222D01*
X11946848Y-13837222D02*
X11946848Y-13941984D01*
X12042086Y-13941984D02*
X12042086Y-13808650D01*
X12042086Y-13827698D02*
X12051610Y-13818174D01*
X12051610Y-13818174D02*
X12070658Y-13808650D01*
X12070658Y-13808650D02*
X12099229Y-13808650D01*
X12099229Y-13808650D02*
X12118277Y-13818174D01*
X12118277Y-13818174D02*
X12127801Y-13837222D01*
X12127801Y-13837222D02*
X12127801Y-13941984D01*
X12127801Y-13837222D02*
X12137324Y-13818174D01*
X12137324Y-13818174D02*
X12156372Y-13808650D01*
X12156372Y-13808650D02*
X12184943Y-13808650D01*
X12184943Y-13808650D02*
X12203991Y-13818174D01*
X12203991Y-13818174D02*
X12213515Y-13837222D01*
X12213515Y-13837222D02*
X12213515Y-13941984D01*
X12603991Y-13732460D02*
X12432563Y-13989603D01*
X12861134Y-13741984D02*
X12880182Y-13741984D01*
X12880182Y-13741984D02*
X12899229Y-13751508D01*
X12899229Y-13751508D02*
X12908753Y-13761031D01*
X12908753Y-13761031D02*
X12918277Y-13780079D01*
X12918277Y-13780079D02*
X12927801Y-13818174D01*
X12927801Y-13818174D02*
X12927801Y-13865793D01*
X12927801Y-13865793D02*
X12918277Y-13903888D01*
X12918277Y-13903888D02*
X12908753Y-13922936D01*
X12908753Y-13922936D02*
X12899229Y-13932460D01*
X12899229Y-13932460D02*
X12880182Y-13941984D01*
X12880182Y-13941984D02*
X12861134Y-13941984D01*
X12861134Y-13941984D02*
X12842086Y-13932460D01*
X12842086Y-13932460D02*
X12832563Y-13922936D01*
X12832563Y-13922936D02*
X12823039Y-13903888D01*
X12823039Y-13903888D02*
X12813515Y-13865793D01*
X12813515Y-13865793D02*
X12813515Y-13818174D01*
X12813515Y-13818174D02*
X12823039Y-13780079D01*
X12823039Y-13780079D02*
X12832563Y-13761031D01*
X12832563Y-13761031D02*
X12842086Y-13751508D01*
X12842086Y-13751508D02*
X12861134Y-13741984D01*
X13013515Y-13922936D02*
X13023039Y-13932460D01*
X13023039Y-13932460D02*
X13013515Y-13941984D01*
X13013515Y-13941984D02*
X13003991Y-13932460D01*
X13003991Y-13932460D02*
X13013515Y-13922936D01*
X13013515Y-13922936D02*
X13013515Y-13941984D01*
X13146848Y-13741984D02*
X13165896Y-13741984D01*
X13165896Y-13741984D02*
X13184944Y-13751508D01*
X13184944Y-13751508D02*
X13194467Y-13761031D01*
X13194467Y-13761031D02*
X13203991Y-13780079D01*
X13203991Y-13780079D02*
X13213515Y-13818174D01*
X13213515Y-13818174D02*
X13213515Y-13865793D01*
X13213515Y-13865793D02*
X13203991Y-13903888D01*
X13203991Y-13903888D02*
X13194467Y-13922936D01*
X13194467Y-13922936D02*
X13184944Y-13932460D01*
X13184944Y-13932460D02*
X13165896Y-13941984D01*
X13165896Y-13941984D02*
X13146848Y-13941984D01*
X13146848Y-13941984D02*
X13127801Y-13932460D01*
X13127801Y-13932460D02*
X13118277Y-13922936D01*
X13118277Y-13922936D02*
X13108753Y-13903888D01*
X13108753Y-13903888D02*
X13099229Y-13865793D01*
X13099229Y-13865793D02*
X13099229Y-13818174D01*
X13099229Y-13818174D02*
X13108753Y-13780079D01*
X13108753Y-13780079D02*
X13118277Y-13761031D01*
X13118277Y-13761031D02*
X13127801Y-13751508D01*
X13127801Y-13751508D02*
X13146848Y-13741984D01*
X13384944Y-13808650D02*
X13384944Y-13941984D01*
X13337325Y-13732460D02*
X13289706Y-13875317D01*
X13289706Y-13875317D02*
X13413515Y-13875317D01*
X13527801Y-13741984D02*
X13546848Y-13741984D01*
X13546848Y-13741984D02*
X13565896Y-13751508D01*
X13565896Y-13751508D02*
X13575420Y-13761031D01*
X13575420Y-13761031D02*
X13584944Y-13780079D01*
X13584944Y-13780079D02*
X13594467Y-13818174D01*
X13594467Y-13818174D02*
X13594467Y-13865793D01*
X13594467Y-13865793D02*
X13584944Y-13903888D01*
X13584944Y-13903888D02*
X13575420Y-13922936D01*
X13575420Y-13922936D02*
X13565896Y-13932460D01*
X13565896Y-13932460D02*
X13546848Y-13941984D01*
X13546848Y-13941984D02*
X13527801Y-13941984D01*
X13527801Y-13941984D02*
X13508753Y-13932460D01*
X13508753Y-13932460D02*
X13499229Y-13922936D01*
X13499229Y-13922936D02*
X13489706Y-13903888D01*
X13489706Y-13903888D02*
X13480182Y-13865793D01*
X13480182Y-13865793D02*
X13480182Y-13818174D01*
X13480182Y-13818174D02*
X13489706Y-13780079D01*
X13489706Y-13780079D02*
X13499229Y-13761031D01*
X13499229Y-13761031D02*
X13508753Y-13751508D01*
X13508753Y-13751508D02*
X13527801Y-13741984D01*
X13670658Y-13761031D02*
X13680182Y-13751508D01*
X13680182Y-13751508D02*
X13699229Y-13741984D01*
X13699229Y-13741984D02*
X13746848Y-13741984D01*
X13746848Y-13741984D02*
X13765896Y-13751508D01*
X13765896Y-13751508D02*
X13775420Y-13761031D01*
X13775420Y-13761031D02*
X13784944Y-13780079D01*
X13784944Y-13780079D02*
X13784944Y-13799127D01*
X13784944Y-13799127D02*
X13775420Y-13827698D01*
X13775420Y-13827698D02*
X13661134Y-13941984D01*
X13661134Y-13941984D02*
X13784944Y-13941984D01*
X13861134Y-13741984D02*
X13861134Y-13780079D01*
X13937325Y-13741984D02*
X13937325Y-13780079D01*
X14232563Y-14018174D02*
X14223039Y-14008650D01*
X14223039Y-14008650D02*
X14203991Y-13980079D01*
X14203991Y-13980079D02*
X14194468Y-13961031D01*
X14194468Y-13961031D02*
X14184944Y-13932460D01*
X14184944Y-13932460D02*
X14175420Y-13884841D01*
X14175420Y-13884841D02*
X14175420Y-13846746D01*
X14175420Y-13846746D02*
X14184944Y-13799127D01*
X14184944Y-13799127D02*
X14194468Y-13770555D01*
X14194468Y-13770555D02*
X14203991Y-13751508D01*
X14203991Y-13751508D02*
X14223039Y-13722936D01*
X14223039Y-13722936D02*
X14232563Y-13713412D01*
X14394468Y-13808650D02*
X14394468Y-13941984D01*
X14346848Y-13732460D02*
X14299229Y-13875317D01*
X14299229Y-13875317D02*
X14423039Y-13875317D01*
X14537325Y-13741984D02*
X14556372Y-13741984D01*
X14556372Y-13741984D02*
X14575420Y-13751508D01*
X14575420Y-13751508D02*
X14584944Y-13761031D01*
X14584944Y-13761031D02*
X14594468Y-13780079D01*
X14594468Y-13780079D02*
X14603991Y-13818174D01*
X14603991Y-13818174D02*
X14603991Y-13865793D01*
X14603991Y-13865793D02*
X14594468Y-13903888D01*
X14594468Y-13903888D02*
X14584944Y-13922936D01*
X14584944Y-13922936D02*
X14575420Y-13932460D01*
X14575420Y-13932460D02*
X14556372Y-13941984D01*
X14556372Y-13941984D02*
X14537325Y-13941984D01*
X14537325Y-13941984D02*
X14518277Y-13932460D01*
X14518277Y-13932460D02*
X14508753Y-13922936D01*
X14508753Y-13922936D02*
X14499229Y-13903888D01*
X14499229Y-13903888D02*
X14489706Y-13865793D01*
X14489706Y-13865793D02*
X14489706Y-13818174D01*
X14489706Y-13818174D02*
X14499229Y-13780079D01*
X14499229Y-13780079D02*
X14508753Y-13761031D01*
X14508753Y-13761031D02*
X14518277Y-13751508D01*
X14518277Y-13751508D02*
X14537325Y-13741984D01*
X14842087Y-13941984D02*
X14842087Y-13741984D01*
X14927801Y-13941984D02*
X14927801Y-13837222D01*
X14927801Y-13837222D02*
X14918277Y-13818174D01*
X14918277Y-13818174D02*
X14899230Y-13808650D01*
X14899230Y-13808650D02*
X14870658Y-13808650D01*
X14870658Y-13808650D02*
X14851610Y-13818174D01*
X14851610Y-13818174D02*
X14842087Y-13827698D01*
X15051610Y-13941984D02*
X15032563Y-13932460D01*
X15032563Y-13932460D02*
X15023039Y-13922936D01*
X15023039Y-13922936D02*
X15013515Y-13903888D01*
X15013515Y-13903888D02*
X15013515Y-13846746D01*
X15013515Y-13846746D02*
X15023039Y-13827698D01*
X15023039Y-13827698D02*
X15032563Y-13818174D01*
X15032563Y-13818174D02*
X15051610Y-13808650D01*
X15051610Y-13808650D02*
X15080182Y-13808650D01*
X15080182Y-13808650D02*
X15099230Y-13818174D01*
X15099230Y-13818174D02*
X15108753Y-13827698D01*
X15108753Y-13827698D02*
X15118277Y-13846746D01*
X15118277Y-13846746D02*
X15118277Y-13903888D01*
X15118277Y-13903888D02*
X15108753Y-13922936D01*
X15108753Y-13922936D02*
X15099230Y-13932460D01*
X15099230Y-13932460D02*
X15080182Y-13941984D01*
X15080182Y-13941984D02*
X15051610Y-13941984D01*
X15232563Y-13941984D02*
X15213515Y-13932460D01*
X15213515Y-13932460D02*
X15203991Y-13913412D01*
X15203991Y-13913412D02*
X15203991Y-13741984D01*
X15384944Y-13932460D02*
X15365896Y-13941984D01*
X15365896Y-13941984D02*
X15327801Y-13941984D01*
X15327801Y-13941984D02*
X15308753Y-13932460D01*
X15308753Y-13932460D02*
X15299230Y-13913412D01*
X15299230Y-13913412D02*
X15299230Y-13837222D01*
X15299230Y-13837222D02*
X15308753Y-13818174D01*
X15308753Y-13818174D02*
X15327801Y-13808650D01*
X15327801Y-13808650D02*
X15365896Y-13808650D01*
X15365896Y-13808650D02*
X15384944Y-13818174D01*
X15384944Y-13818174D02*
X15394468Y-13837222D01*
X15394468Y-13837222D02*
X15394468Y-13856269D01*
X15394468Y-13856269D02*
X15299230Y-13875317D01*
X15470658Y-13932460D02*
X15489706Y-13941984D01*
X15489706Y-13941984D02*
X15527801Y-13941984D01*
X15527801Y-13941984D02*
X15546849Y-13932460D01*
X15546849Y-13932460D02*
X15556372Y-13913412D01*
X15556372Y-13913412D02*
X15556372Y-13903888D01*
X15556372Y-13903888D02*
X15546849Y-13884841D01*
X15546849Y-13884841D02*
X15527801Y-13875317D01*
X15527801Y-13875317D02*
X15499230Y-13875317D01*
X15499230Y-13875317D02*
X15480182Y-13865793D01*
X15480182Y-13865793D02*
X15470658Y-13846746D01*
X15470658Y-13846746D02*
X15470658Y-13837222D01*
X15470658Y-13837222D02*
X15480182Y-13818174D01*
X15480182Y-13818174D02*
X15499230Y-13808650D01*
X15499230Y-13808650D02*
X15527801Y-13808650D01*
X15527801Y-13808650D02*
X15546849Y-13818174D01*
X15623039Y-14018174D02*
X15632563Y-14008650D01*
X15632563Y-14008650D02*
X15651611Y-13980079D01*
X15651611Y-13980079D02*
X15661134Y-13961031D01*
X15661134Y-13961031D02*
X15670658Y-13932460D01*
X15670658Y-13932460D02*
X15680182Y-13884841D01*
X15680182Y-13884841D02*
X15680182Y-13846746D01*
X15680182Y-13846746D02*
X15670658Y-13799127D01*
X15670658Y-13799127D02*
X15661134Y-13770555D01*
X15661134Y-13770555D02*
X15651611Y-13751508D01*
X15651611Y-13751508D02*
X15632563Y-13722936D01*
X15632563Y-13722936D02*
X15623039Y-13713412D01*
D14*
X10641391Y-14153391D02*
X10641391Y-14075609D01*
X10563609Y-14075609D01*
X10563609Y-14153391D01*
X10641391Y-14153391D01*
D11*
X11023039Y-14205984D02*
X10908753Y-14205984D01*
X10965896Y-14205984D02*
X10965896Y-14005984D01*
X10965896Y-14005984D02*
X10946848Y-14034555D01*
X10946848Y-14034555D02*
X10927801Y-14053603D01*
X10927801Y-14053603D02*
X10908753Y-14063127D01*
X11108753Y-14186936D02*
X11118277Y-14196460D01*
X11118277Y-14196460D02*
X11108753Y-14205984D01*
X11108753Y-14205984D02*
X11099229Y-14196460D01*
X11099229Y-14196460D02*
X11108753Y-14186936D01*
X11108753Y-14186936D02*
X11108753Y-14205984D01*
X11308753Y-14205984D02*
X11194467Y-14205984D01*
X11251610Y-14205984D02*
X11251610Y-14005984D01*
X11251610Y-14005984D02*
X11232562Y-14034555D01*
X11232562Y-14034555D02*
X11213515Y-14053603D01*
X11213515Y-14053603D02*
X11194467Y-14063127D01*
X11432562Y-14005984D02*
X11451610Y-14005984D01*
X11451610Y-14005984D02*
X11470658Y-14015508D01*
X11470658Y-14015508D02*
X11480182Y-14025031D01*
X11480182Y-14025031D02*
X11489705Y-14044079D01*
X11489705Y-14044079D02*
X11499229Y-14082174D01*
X11499229Y-14082174D02*
X11499229Y-14129793D01*
X11499229Y-14129793D02*
X11489705Y-14167888D01*
X11489705Y-14167888D02*
X11480182Y-14186936D01*
X11480182Y-14186936D02*
X11470658Y-14196460D01*
X11470658Y-14196460D02*
X11451610Y-14205984D01*
X11451610Y-14205984D02*
X11432562Y-14205984D01*
X11432562Y-14205984D02*
X11413515Y-14196460D01*
X11413515Y-14196460D02*
X11403991Y-14186936D01*
X11403991Y-14186936D02*
X11394467Y-14167888D01*
X11394467Y-14167888D02*
X11384943Y-14129793D01*
X11384943Y-14129793D02*
X11384943Y-14082174D01*
X11384943Y-14082174D02*
X11394467Y-14044079D01*
X11394467Y-14044079D02*
X11403991Y-14025031D01*
X11403991Y-14025031D02*
X11413515Y-14015508D01*
X11413515Y-14015508D02*
X11432562Y-14005984D01*
X11623039Y-14005984D02*
X11642086Y-14005984D01*
X11642086Y-14005984D02*
X11661134Y-14015508D01*
X11661134Y-14015508D02*
X11670658Y-14025031D01*
X11670658Y-14025031D02*
X11680182Y-14044079D01*
X11680182Y-14044079D02*
X11689705Y-14082174D01*
X11689705Y-14082174D02*
X11689705Y-14129793D01*
X11689705Y-14129793D02*
X11680182Y-14167888D01*
X11680182Y-14167888D02*
X11670658Y-14186936D01*
X11670658Y-14186936D02*
X11661134Y-14196460D01*
X11661134Y-14196460D02*
X11642086Y-14205984D01*
X11642086Y-14205984D02*
X11623039Y-14205984D01*
X11623039Y-14205984D02*
X11603991Y-14196460D01*
X11603991Y-14196460D02*
X11594467Y-14186936D01*
X11594467Y-14186936D02*
X11584943Y-14167888D01*
X11584943Y-14167888D02*
X11575420Y-14129793D01*
X11575420Y-14129793D02*
X11575420Y-14082174D01*
X11575420Y-14082174D02*
X11584943Y-14044079D01*
X11584943Y-14044079D02*
X11594467Y-14025031D01*
X11594467Y-14025031D02*
X11603991Y-14015508D01*
X11603991Y-14015508D02*
X11623039Y-14005984D01*
X11775420Y-14205984D02*
X11775420Y-14072650D01*
X11775420Y-14091698D02*
X11784943Y-14082174D01*
X11784943Y-14082174D02*
X11803991Y-14072650D01*
X11803991Y-14072650D02*
X11832563Y-14072650D01*
X11832563Y-14072650D02*
X11851610Y-14082174D01*
X11851610Y-14082174D02*
X11861134Y-14101222D01*
X11861134Y-14101222D02*
X11861134Y-14205984D01*
X11861134Y-14101222D02*
X11870658Y-14082174D01*
X11870658Y-14082174D02*
X11889705Y-14072650D01*
X11889705Y-14072650D02*
X11918277Y-14072650D01*
X11918277Y-14072650D02*
X11937324Y-14082174D01*
X11937324Y-14082174D02*
X11946848Y-14101222D01*
X11946848Y-14101222D02*
X11946848Y-14205984D01*
X12042086Y-14205984D02*
X12042086Y-14072650D01*
X12042086Y-14091698D02*
X12051610Y-14082174D01*
X12051610Y-14082174D02*
X12070658Y-14072650D01*
X12070658Y-14072650D02*
X12099229Y-14072650D01*
X12099229Y-14072650D02*
X12118277Y-14082174D01*
X12118277Y-14082174D02*
X12127801Y-14101222D01*
X12127801Y-14101222D02*
X12127801Y-14205984D01*
X12127801Y-14101222D02*
X12137324Y-14082174D01*
X12137324Y-14082174D02*
X12156372Y-14072650D01*
X12156372Y-14072650D02*
X12184943Y-14072650D01*
X12184943Y-14072650D02*
X12203991Y-14082174D01*
X12203991Y-14082174D02*
X12213515Y-14101222D01*
X12213515Y-14101222D02*
X12213515Y-14205984D01*
X12603991Y-13996460D02*
X12432563Y-14253603D01*
X12861134Y-14005984D02*
X12880182Y-14005984D01*
X12880182Y-14005984D02*
X12899229Y-14015508D01*
X12899229Y-14015508D02*
X12908753Y-14025031D01*
X12908753Y-14025031D02*
X12918277Y-14044079D01*
X12918277Y-14044079D02*
X12927801Y-14082174D01*
X12927801Y-14082174D02*
X12927801Y-14129793D01*
X12927801Y-14129793D02*
X12918277Y-14167888D01*
X12918277Y-14167888D02*
X12908753Y-14186936D01*
X12908753Y-14186936D02*
X12899229Y-14196460D01*
X12899229Y-14196460D02*
X12880182Y-14205984D01*
X12880182Y-14205984D02*
X12861134Y-14205984D01*
X12861134Y-14205984D02*
X12842086Y-14196460D01*
X12842086Y-14196460D02*
X12832563Y-14186936D01*
X12832563Y-14186936D02*
X12823039Y-14167888D01*
X12823039Y-14167888D02*
X12813515Y-14129793D01*
X12813515Y-14129793D02*
X12813515Y-14082174D01*
X12813515Y-14082174D02*
X12823039Y-14044079D01*
X12823039Y-14044079D02*
X12832563Y-14025031D01*
X12832563Y-14025031D02*
X12842086Y-14015508D01*
X12842086Y-14015508D02*
X12861134Y-14005984D01*
X13013515Y-14186936D02*
X13023039Y-14196460D01*
X13023039Y-14196460D02*
X13013515Y-14205984D01*
X13013515Y-14205984D02*
X13003991Y-14196460D01*
X13003991Y-14196460D02*
X13013515Y-14186936D01*
X13013515Y-14186936D02*
X13013515Y-14205984D01*
X13146848Y-14005984D02*
X13165896Y-14005984D01*
X13165896Y-14005984D02*
X13184944Y-14015508D01*
X13184944Y-14015508D02*
X13194467Y-14025031D01*
X13194467Y-14025031D02*
X13203991Y-14044079D01*
X13203991Y-14044079D02*
X13213515Y-14082174D01*
X13213515Y-14082174D02*
X13213515Y-14129793D01*
X13213515Y-14129793D02*
X13203991Y-14167888D01*
X13203991Y-14167888D02*
X13194467Y-14186936D01*
X13194467Y-14186936D02*
X13184944Y-14196460D01*
X13184944Y-14196460D02*
X13165896Y-14205984D01*
X13165896Y-14205984D02*
X13146848Y-14205984D01*
X13146848Y-14205984D02*
X13127801Y-14196460D01*
X13127801Y-14196460D02*
X13118277Y-14186936D01*
X13118277Y-14186936D02*
X13108753Y-14167888D01*
X13108753Y-14167888D02*
X13099229Y-14129793D01*
X13099229Y-14129793D02*
X13099229Y-14082174D01*
X13099229Y-14082174D02*
X13108753Y-14044079D01*
X13108753Y-14044079D02*
X13118277Y-14025031D01*
X13118277Y-14025031D02*
X13127801Y-14015508D01*
X13127801Y-14015508D02*
X13146848Y-14005984D01*
X13384944Y-14072650D02*
X13384944Y-14205984D01*
X13337325Y-13996460D02*
X13289706Y-14139317D01*
X13289706Y-14139317D02*
X13413515Y-14139317D01*
X13470658Y-14005984D02*
X13594467Y-14005984D01*
X13594467Y-14005984D02*
X13527801Y-14082174D01*
X13527801Y-14082174D02*
X13556372Y-14082174D01*
X13556372Y-14082174D02*
X13575420Y-14091698D01*
X13575420Y-14091698D02*
X13584944Y-14101222D01*
X13584944Y-14101222D02*
X13594467Y-14120269D01*
X13594467Y-14120269D02*
X13594467Y-14167888D01*
X13594467Y-14167888D02*
X13584944Y-14186936D01*
X13584944Y-14186936D02*
X13575420Y-14196460D01*
X13575420Y-14196460D02*
X13556372Y-14205984D01*
X13556372Y-14205984D02*
X13499229Y-14205984D01*
X13499229Y-14205984D02*
X13480182Y-14196460D01*
X13480182Y-14196460D02*
X13470658Y-14186936D01*
X13661134Y-14005984D02*
X13784944Y-14005984D01*
X13784944Y-14005984D02*
X13718277Y-14082174D01*
X13718277Y-14082174D02*
X13746848Y-14082174D01*
X13746848Y-14082174D02*
X13765896Y-14091698D01*
X13765896Y-14091698D02*
X13775420Y-14101222D01*
X13775420Y-14101222D02*
X13784944Y-14120269D01*
X13784944Y-14120269D02*
X13784944Y-14167888D01*
X13784944Y-14167888D02*
X13775420Y-14186936D01*
X13775420Y-14186936D02*
X13765896Y-14196460D01*
X13765896Y-14196460D02*
X13746848Y-14205984D01*
X13746848Y-14205984D02*
X13689706Y-14205984D01*
X13689706Y-14205984D02*
X13670658Y-14196460D01*
X13670658Y-14196460D02*
X13661134Y-14186936D01*
X13861134Y-14005984D02*
X13861134Y-14044079D01*
X13937325Y-14005984D02*
X13937325Y-14044079D01*
X14232563Y-14282174D02*
X14223039Y-14272650D01*
X14223039Y-14272650D02*
X14203991Y-14244079D01*
X14203991Y-14244079D02*
X14194468Y-14225031D01*
X14194468Y-14225031D02*
X14184944Y-14196460D01*
X14184944Y-14196460D02*
X14175420Y-14148841D01*
X14175420Y-14148841D02*
X14175420Y-14110746D01*
X14175420Y-14110746D02*
X14184944Y-14063127D01*
X14184944Y-14063127D02*
X14194468Y-14034555D01*
X14194468Y-14034555D02*
X14203991Y-14015508D01*
X14203991Y-14015508D02*
X14223039Y-13986936D01*
X14223039Y-13986936D02*
X14232563Y-13977412D01*
X14394468Y-14005984D02*
X14356372Y-14005984D01*
X14356372Y-14005984D02*
X14337325Y-14015508D01*
X14337325Y-14015508D02*
X14327801Y-14025031D01*
X14327801Y-14025031D02*
X14308753Y-14053603D01*
X14308753Y-14053603D02*
X14299229Y-14091698D01*
X14299229Y-14091698D02*
X14299229Y-14167888D01*
X14299229Y-14167888D02*
X14308753Y-14186936D01*
X14308753Y-14186936D02*
X14318277Y-14196460D01*
X14318277Y-14196460D02*
X14337325Y-14205984D01*
X14337325Y-14205984D02*
X14375420Y-14205984D01*
X14375420Y-14205984D02*
X14394468Y-14196460D01*
X14394468Y-14196460D02*
X14403991Y-14186936D01*
X14403991Y-14186936D02*
X14413515Y-14167888D01*
X14413515Y-14167888D02*
X14413515Y-14120269D01*
X14413515Y-14120269D02*
X14403991Y-14101222D01*
X14403991Y-14101222D02*
X14394468Y-14091698D01*
X14394468Y-14091698D02*
X14375420Y-14082174D01*
X14375420Y-14082174D02*
X14337325Y-14082174D01*
X14337325Y-14082174D02*
X14318277Y-14091698D01*
X14318277Y-14091698D02*
X14308753Y-14101222D01*
X14308753Y-14101222D02*
X14299229Y-14120269D01*
X14651610Y-14205984D02*
X14651610Y-14005984D01*
X14737325Y-14205984D02*
X14737325Y-14101222D01*
X14737325Y-14101222D02*
X14727801Y-14082174D01*
X14727801Y-14082174D02*
X14708753Y-14072650D01*
X14708753Y-14072650D02*
X14680182Y-14072650D01*
X14680182Y-14072650D02*
X14661134Y-14082174D01*
X14661134Y-14082174D02*
X14651610Y-14091698D01*
X14861134Y-14205984D02*
X14842087Y-14196460D01*
X14842087Y-14196460D02*
X14832563Y-14186936D01*
X14832563Y-14186936D02*
X14823039Y-14167888D01*
X14823039Y-14167888D02*
X14823039Y-14110746D01*
X14823039Y-14110746D02*
X14832563Y-14091698D01*
X14832563Y-14091698D02*
X14842087Y-14082174D01*
X14842087Y-14082174D02*
X14861134Y-14072650D01*
X14861134Y-14072650D02*
X14889706Y-14072650D01*
X14889706Y-14072650D02*
X14908753Y-14082174D01*
X14908753Y-14082174D02*
X14918277Y-14091698D01*
X14918277Y-14091698D02*
X14927801Y-14110746D01*
X14927801Y-14110746D02*
X14927801Y-14167888D01*
X14927801Y-14167888D02*
X14918277Y-14186936D01*
X14918277Y-14186936D02*
X14908753Y-14196460D01*
X14908753Y-14196460D02*
X14889706Y-14205984D01*
X14889706Y-14205984D02*
X14861134Y-14205984D01*
X15042087Y-14205984D02*
X15023039Y-14196460D01*
X15023039Y-14196460D02*
X15013515Y-14177412D01*
X15013515Y-14177412D02*
X15013515Y-14005984D01*
X15194468Y-14196460D02*
X15175420Y-14205984D01*
X15175420Y-14205984D02*
X15137325Y-14205984D01*
X15137325Y-14205984D02*
X15118277Y-14196460D01*
X15118277Y-14196460D02*
X15108753Y-14177412D01*
X15108753Y-14177412D02*
X15108753Y-14101222D01*
X15108753Y-14101222D02*
X15118277Y-14082174D01*
X15118277Y-14082174D02*
X15137325Y-14072650D01*
X15137325Y-14072650D02*
X15175420Y-14072650D01*
X15175420Y-14072650D02*
X15194468Y-14082174D01*
X15194468Y-14082174D02*
X15203991Y-14101222D01*
X15203991Y-14101222D02*
X15203991Y-14120269D01*
X15203991Y-14120269D02*
X15108753Y-14139317D01*
X15280182Y-14196460D02*
X15299230Y-14205984D01*
X15299230Y-14205984D02*
X15337325Y-14205984D01*
X15337325Y-14205984D02*
X15356372Y-14196460D01*
X15356372Y-14196460D02*
X15365896Y-14177412D01*
X15365896Y-14177412D02*
X15365896Y-14167888D01*
X15365896Y-14167888D02*
X15356372Y-14148841D01*
X15356372Y-14148841D02*
X15337325Y-14139317D01*
X15337325Y-14139317D02*
X15308753Y-14139317D01*
X15308753Y-14139317D02*
X15289706Y-14129793D01*
X15289706Y-14129793D02*
X15280182Y-14110746D01*
X15280182Y-14110746D02*
X15280182Y-14101222D01*
X15280182Y-14101222D02*
X15289706Y-14082174D01*
X15289706Y-14082174D02*
X15308753Y-14072650D01*
X15308753Y-14072650D02*
X15337325Y-14072650D01*
X15337325Y-14072650D02*
X15356372Y-14082174D01*
X15432563Y-14282174D02*
X15442087Y-14272650D01*
X15442087Y-14272650D02*
X15461134Y-14244079D01*
X15461134Y-14244079D02*
X15470658Y-14225031D01*
X15470658Y-14225031D02*
X15480182Y-14196460D01*
X15480182Y-14196460D02*
X15489706Y-14148841D01*
X15489706Y-14148841D02*
X15489706Y-14110746D01*
X15489706Y-14110746D02*
X15480182Y-14063127D01*
X15480182Y-14063127D02*
X15470658Y-14034555D01*
X15470658Y-14034555D02*
X15461134Y-14015508D01*
X15461134Y-14015508D02*
X15442087Y-13986936D01*
X15442087Y-13986936D02*
X15432563Y-13977412D01*
D15*
X10595500Y-14440500D02*
X10657500Y-14378500D01*
X10595500Y-14316500D01*
X10533500Y-14378500D01*
X10595500Y-14440500D01*
D11*
X11023039Y-14469984D02*
X10908753Y-14469984D01*
X10965896Y-14469984D02*
X10965896Y-14269984D01*
X10965896Y-14269984D02*
X10946848Y-14298555D01*
X10946848Y-14298555D02*
X10927801Y-14317603D01*
X10927801Y-14317603D02*
X10908753Y-14327127D01*
X11108753Y-14450936D02*
X11118277Y-14460460D01*
X11118277Y-14460460D02*
X11108753Y-14469984D01*
X11108753Y-14469984D02*
X11099229Y-14460460D01*
X11099229Y-14460460D02*
X11108753Y-14450936D01*
X11108753Y-14450936D02*
X11108753Y-14469984D01*
X11194467Y-14289031D02*
X11203991Y-14279508D01*
X11203991Y-14279508D02*
X11223039Y-14269984D01*
X11223039Y-14269984D02*
X11270658Y-14269984D01*
X11270658Y-14269984D02*
X11289705Y-14279508D01*
X11289705Y-14279508D02*
X11299229Y-14289031D01*
X11299229Y-14289031D02*
X11308753Y-14308079D01*
X11308753Y-14308079D02*
X11308753Y-14327127D01*
X11308753Y-14327127D02*
X11299229Y-14355698D01*
X11299229Y-14355698D02*
X11184943Y-14469984D01*
X11184943Y-14469984D02*
X11308753Y-14469984D01*
X11480182Y-14336650D02*
X11480182Y-14469984D01*
X11432562Y-14260460D02*
X11384943Y-14403317D01*
X11384943Y-14403317D02*
X11508753Y-14403317D01*
X11623039Y-14269984D02*
X11642086Y-14269984D01*
X11642086Y-14269984D02*
X11661134Y-14279508D01*
X11661134Y-14279508D02*
X11670658Y-14289031D01*
X11670658Y-14289031D02*
X11680182Y-14308079D01*
X11680182Y-14308079D02*
X11689705Y-14346174D01*
X11689705Y-14346174D02*
X11689705Y-14393793D01*
X11689705Y-14393793D02*
X11680182Y-14431888D01*
X11680182Y-14431888D02*
X11670658Y-14450936D01*
X11670658Y-14450936D02*
X11661134Y-14460460D01*
X11661134Y-14460460D02*
X11642086Y-14469984D01*
X11642086Y-14469984D02*
X11623039Y-14469984D01*
X11623039Y-14469984D02*
X11603991Y-14460460D01*
X11603991Y-14460460D02*
X11594467Y-14450936D01*
X11594467Y-14450936D02*
X11584943Y-14431888D01*
X11584943Y-14431888D02*
X11575420Y-14393793D01*
X11575420Y-14393793D02*
X11575420Y-14346174D01*
X11575420Y-14346174D02*
X11584943Y-14308079D01*
X11584943Y-14308079D02*
X11594467Y-14289031D01*
X11594467Y-14289031D02*
X11603991Y-14279508D01*
X11603991Y-14279508D02*
X11623039Y-14269984D01*
X11775420Y-14469984D02*
X11775420Y-14336650D01*
X11775420Y-14355698D02*
X11784943Y-14346174D01*
X11784943Y-14346174D02*
X11803991Y-14336650D01*
X11803991Y-14336650D02*
X11832563Y-14336650D01*
X11832563Y-14336650D02*
X11851610Y-14346174D01*
X11851610Y-14346174D02*
X11861134Y-14365222D01*
X11861134Y-14365222D02*
X11861134Y-14469984D01*
X11861134Y-14365222D02*
X11870658Y-14346174D01*
X11870658Y-14346174D02*
X11889705Y-14336650D01*
X11889705Y-14336650D02*
X11918277Y-14336650D01*
X11918277Y-14336650D02*
X11937324Y-14346174D01*
X11937324Y-14346174D02*
X11946848Y-14365222D01*
X11946848Y-14365222D02*
X11946848Y-14469984D01*
X12042086Y-14469984D02*
X12042086Y-14336650D01*
X12042086Y-14355698D02*
X12051610Y-14346174D01*
X12051610Y-14346174D02*
X12070658Y-14336650D01*
X12070658Y-14336650D02*
X12099229Y-14336650D01*
X12099229Y-14336650D02*
X12118277Y-14346174D01*
X12118277Y-14346174D02*
X12127801Y-14365222D01*
X12127801Y-14365222D02*
X12127801Y-14469984D01*
X12127801Y-14365222D02*
X12137324Y-14346174D01*
X12137324Y-14346174D02*
X12156372Y-14336650D01*
X12156372Y-14336650D02*
X12184943Y-14336650D01*
X12184943Y-14336650D02*
X12203991Y-14346174D01*
X12203991Y-14346174D02*
X12213515Y-14365222D01*
X12213515Y-14365222D02*
X12213515Y-14469984D01*
X12603991Y-14260460D02*
X12432563Y-14517603D01*
X12861134Y-14269984D02*
X12880182Y-14269984D01*
X12880182Y-14269984D02*
X12899229Y-14279508D01*
X12899229Y-14279508D02*
X12908753Y-14289031D01*
X12908753Y-14289031D02*
X12918277Y-14308079D01*
X12918277Y-14308079D02*
X12927801Y-14346174D01*
X12927801Y-14346174D02*
X12927801Y-14393793D01*
X12927801Y-14393793D02*
X12918277Y-14431888D01*
X12918277Y-14431888D02*
X12908753Y-14450936D01*
X12908753Y-14450936D02*
X12899229Y-14460460D01*
X12899229Y-14460460D02*
X12880182Y-14469984D01*
X12880182Y-14469984D02*
X12861134Y-14469984D01*
X12861134Y-14469984D02*
X12842086Y-14460460D01*
X12842086Y-14460460D02*
X12832563Y-14450936D01*
X12832563Y-14450936D02*
X12823039Y-14431888D01*
X12823039Y-14431888D02*
X12813515Y-14393793D01*
X12813515Y-14393793D02*
X12813515Y-14346174D01*
X12813515Y-14346174D02*
X12823039Y-14308079D01*
X12823039Y-14308079D02*
X12832563Y-14289031D01*
X12832563Y-14289031D02*
X12842086Y-14279508D01*
X12842086Y-14279508D02*
X12861134Y-14269984D01*
X13013515Y-14450936D02*
X13023039Y-14460460D01*
X13023039Y-14460460D02*
X13013515Y-14469984D01*
X13013515Y-14469984D02*
X13003991Y-14460460D01*
X13003991Y-14460460D02*
X13013515Y-14450936D01*
X13013515Y-14450936D02*
X13013515Y-14469984D01*
X13146848Y-14269984D02*
X13165896Y-14269984D01*
X13165896Y-14269984D02*
X13184944Y-14279508D01*
X13184944Y-14279508D02*
X13194467Y-14289031D01*
X13194467Y-14289031D02*
X13203991Y-14308079D01*
X13203991Y-14308079D02*
X13213515Y-14346174D01*
X13213515Y-14346174D02*
X13213515Y-14393793D01*
X13213515Y-14393793D02*
X13203991Y-14431888D01*
X13203991Y-14431888D02*
X13194467Y-14450936D01*
X13194467Y-14450936D02*
X13184944Y-14460460D01*
X13184944Y-14460460D02*
X13165896Y-14469984D01*
X13165896Y-14469984D02*
X13146848Y-14469984D01*
X13146848Y-14469984D02*
X13127801Y-14460460D01*
X13127801Y-14460460D02*
X13118277Y-14450936D01*
X13118277Y-14450936D02*
X13108753Y-14431888D01*
X13108753Y-14431888D02*
X13099229Y-14393793D01*
X13099229Y-14393793D02*
X13099229Y-14346174D01*
X13099229Y-14346174D02*
X13108753Y-14308079D01*
X13108753Y-14308079D02*
X13118277Y-14289031D01*
X13118277Y-14289031D02*
X13127801Y-14279508D01*
X13127801Y-14279508D02*
X13146848Y-14269984D01*
X13384944Y-14336650D02*
X13384944Y-14469984D01*
X13337325Y-14260460D02*
X13289706Y-14403317D01*
X13289706Y-14403317D02*
X13413515Y-14403317D01*
X13518277Y-14355698D02*
X13499229Y-14346174D01*
X13499229Y-14346174D02*
X13489706Y-14336650D01*
X13489706Y-14336650D02*
X13480182Y-14317603D01*
X13480182Y-14317603D02*
X13480182Y-14308079D01*
X13480182Y-14308079D02*
X13489706Y-14289031D01*
X13489706Y-14289031D02*
X13499229Y-14279508D01*
X13499229Y-14279508D02*
X13518277Y-14269984D01*
X13518277Y-14269984D02*
X13556372Y-14269984D01*
X13556372Y-14269984D02*
X13575420Y-14279508D01*
X13575420Y-14279508D02*
X13584944Y-14289031D01*
X13584944Y-14289031D02*
X13594467Y-14308079D01*
X13594467Y-14308079D02*
X13594467Y-14317603D01*
X13594467Y-14317603D02*
X13584944Y-14336650D01*
X13584944Y-14336650D02*
X13575420Y-14346174D01*
X13575420Y-14346174D02*
X13556372Y-14355698D01*
X13556372Y-14355698D02*
X13518277Y-14355698D01*
X13518277Y-14355698D02*
X13499229Y-14365222D01*
X13499229Y-14365222D02*
X13489706Y-14374746D01*
X13489706Y-14374746D02*
X13480182Y-14393793D01*
X13480182Y-14393793D02*
X13480182Y-14431888D01*
X13480182Y-14431888D02*
X13489706Y-14450936D01*
X13489706Y-14450936D02*
X13499229Y-14460460D01*
X13499229Y-14460460D02*
X13518277Y-14469984D01*
X13518277Y-14469984D02*
X13556372Y-14469984D01*
X13556372Y-14469984D02*
X13575420Y-14460460D01*
X13575420Y-14460460D02*
X13584944Y-14450936D01*
X13584944Y-14450936D02*
X13594467Y-14431888D01*
X13594467Y-14431888D02*
X13594467Y-14393793D01*
X13594467Y-14393793D02*
X13584944Y-14374746D01*
X13584944Y-14374746D02*
X13575420Y-14365222D01*
X13575420Y-14365222D02*
X13556372Y-14355698D01*
X13708753Y-14355698D02*
X13689706Y-14346174D01*
X13689706Y-14346174D02*
X13680182Y-14336650D01*
X13680182Y-14336650D02*
X13670658Y-14317603D01*
X13670658Y-14317603D02*
X13670658Y-14308079D01*
X13670658Y-14308079D02*
X13680182Y-14289031D01*
X13680182Y-14289031D02*
X13689706Y-14279508D01*
X13689706Y-14279508D02*
X13708753Y-14269984D01*
X13708753Y-14269984D02*
X13746848Y-14269984D01*
X13746848Y-14269984D02*
X13765896Y-14279508D01*
X13765896Y-14279508D02*
X13775420Y-14289031D01*
X13775420Y-14289031D02*
X13784944Y-14308079D01*
X13784944Y-14308079D02*
X13784944Y-14317603D01*
X13784944Y-14317603D02*
X13775420Y-14336650D01*
X13775420Y-14336650D02*
X13765896Y-14346174D01*
X13765896Y-14346174D02*
X13746848Y-14355698D01*
X13746848Y-14355698D02*
X13708753Y-14355698D01*
X13708753Y-14355698D02*
X13689706Y-14365222D01*
X13689706Y-14365222D02*
X13680182Y-14374746D01*
X13680182Y-14374746D02*
X13670658Y-14393793D01*
X13670658Y-14393793D02*
X13670658Y-14431888D01*
X13670658Y-14431888D02*
X13680182Y-14450936D01*
X13680182Y-14450936D02*
X13689706Y-14460460D01*
X13689706Y-14460460D02*
X13708753Y-14469984D01*
X13708753Y-14469984D02*
X13746848Y-14469984D01*
X13746848Y-14469984D02*
X13765896Y-14460460D01*
X13765896Y-14460460D02*
X13775420Y-14450936D01*
X13775420Y-14450936D02*
X13784944Y-14431888D01*
X13784944Y-14431888D02*
X13784944Y-14393793D01*
X13784944Y-14393793D02*
X13775420Y-14374746D01*
X13775420Y-14374746D02*
X13765896Y-14365222D01*
X13765896Y-14365222D02*
X13746848Y-14355698D01*
X13861134Y-14269984D02*
X13861134Y-14308079D01*
X13937325Y-14269984D02*
X13937325Y-14308079D01*
X14232563Y-14546174D02*
X14223039Y-14536650D01*
X14223039Y-14536650D02*
X14203991Y-14508079D01*
X14203991Y-14508079D02*
X14194468Y-14489031D01*
X14194468Y-14489031D02*
X14184944Y-14460460D01*
X14184944Y-14460460D02*
X14175420Y-14412841D01*
X14175420Y-14412841D02*
X14175420Y-14374746D01*
X14175420Y-14374746D02*
X14184944Y-14327127D01*
X14184944Y-14327127D02*
X14194468Y-14298555D01*
X14194468Y-14298555D02*
X14203991Y-14279508D01*
X14203991Y-14279508D02*
X14223039Y-14250936D01*
X14223039Y-14250936D02*
X14232563Y-14241412D01*
X14289706Y-14269984D02*
X14413515Y-14269984D01*
X14413515Y-14269984D02*
X14346848Y-14346174D01*
X14346848Y-14346174D02*
X14375420Y-14346174D01*
X14375420Y-14346174D02*
X14394468Y-14355698D01*
X14394468Y-14355698D02*
X14403991Y-14365222D01*
X14403991Y-14365222D02*
X14413515Y-14384269D01*
X14413515Y-14384269D02*
X14413515Y-14431888D01*
X14413515Y-14431888D02*
X14403991Y-14450936D01*
X14403991Y-14450936D02*
X14394468Y-14460460D01*
X14394468Y-14460460D02*
X14375420Y-14469984D01*
X14375420Y-14469984D02*
X14318277Y-14469984D01*
X14318277Y-14469984D02*
X14299229Y-14460460D01*
X14299229Y-14460460D02*
X14289706Y-14450936D01*
X14651610Y-14469984D02*
X14651610Y-14269984D01*
X14737325Y-14469984D02*
X14737325Y-14365222D01*
X14737325Y-14365222D02*
X14727801Y-14346174D01*
X14727801Y-14346174D02*
X14708753Y-14336650D01*
X14708753Y-14336650D02*
X14680182Y-14336650D01*
X14680182Y-14336650D02*
X14661134Y-14346174D01*
X14661134Y-14346174D02*
X14651610Y-14355698D01*
X14861134Y-14469984D02*
X14842087Y-14460460D01*
X14842087Y-14460460D02*
X14832563Y-14450936D01*
X14832563Y-14450936D02*
X14823039Y-14431888D01*
X14823039Y-14431888D02*
X14823039Y-14374746D01*
X14823039Y-14374746D02*
X14832563Y-14355698D01*
X14832563Y-14355698D02*
X14842087Y-14346174D01*
X14842087Y-14346174D02*
X14861134Y-14336650D01*
X14861134Y-14336650D02*
X14889706Y-14336650D01*
X14889706Y-14336650D02*
X14908753Y-14346174D01*
X14908753Y-14346174D02*
X14918277Y-14355698D01*
X14918277Y-14355698D02*
X14927801Y-14374746D01*
X14927801Y-14374746D02*
X14927801Y-14431888D01*
X14927801Y-14431888D02*
X14918277Y-14450936D01*
X14918277Y-14450936D02*
X14908753Y-14460460D01*
X14908753Y-14460460D02*
X14889706Y-14469984D01*
X14889706Y-14469984D02*
X14861134Y-14469984D01*
X15042087Y-14469984D02*
X15023039Y-14460460D01*
X15023039Y-14460460D02*
X15013515Y-14441412D01*
X15013515Y-14441412D02*
X15013515Y-14269984D01*
X15194468Y-14460460D02*
X15175420Y-14469984D01*
X15175420Y-14469984D02*
X15137325Y-14469984D01*
X15137325Y-14469984D02*
X15118277Y-14460460D01*
X15118277Y-14460460D02*
X15108753Y-14441412D01*
X15108753Y-14441412D02*
X15108753Y-14365222D01*
X15108753Y-14365222D02*
X15118277Y-14346174D01*
X15118277Y-14346174D02*
X15137325Y-14336650D01*
X15137325Y-14336650D02*
X15175420Y-14336650D01*
X15175420Y-14336650D02*
X15194468Y-14346174D01*
X15194468Y-14346174D02*
X15203991Y-14365222D01*
X15203991Y-14365222D02*
X15203991Y-14384269D01*
X15203991Y-14384269D02*
X15108753Y-14403317D01*
X15280182Y-14460460D02*
X15299230Y-14469984D01*
X15299230Y-14469984D02*
X15337325Y-14469984D01*
X15337325Y-14469984D02*
X15356372Y-14460460D01*
X15356372Y-14460460D02*
X15365896Y-14441412D01*
X15365896Y-14441412D02*
X15365896Y-14431888D01*
X15365896Y-14431888D02*
X15356372Y-14412841D01*
X15356372Y-14412841D02*
X15337325Y-14403317D01*
X15337325Y-14403317D02*
X15308753Y-14403317D01*
X15308753Y-14403317D02*
X15289706Y-14393793D01*
X15289706Y-14393793D02*
X15280182Y-14374746D01*
X15280182Y-14374746D02*
X15280182Y-14365222D01*
X15280182Y-14365222D02*
X15289706Y-14346174D01*
X15289706Y-14346174D02*
X15308753Y-14336650D01*
X15308753Y-14336650D02*
X15337325Y-14336650D01*
X15337325Y-14336650D02*
X15356372Y-14346174D01*
X15432563Y-14546174D02*
X15442087Y-14536650D01*
X15442087Y-14536650D02*
X15461134Y-14508079D01*
X15461134Y-14508079D02*
X15470658Y-14489031D01*
X15470658Y-14489031D02*
X15480182Y-14460460D01*
X15480182Y-14460460D02*
X15489706Y-14412841D01*
X15489706Y-14412841D02*
X15489706Y-14374746D01*
X15489706Y-14374746D02*
X15480182Y-14327127D01*
X15480182Y-14327127D02*
X15470658Y-14298555D01*
X15470658Y-14298555D02*
X15461134Y-14279508D01*
X15461134Y-14279508D02*
X15442087Y-14250936D01*
X15442087Y-14250936D02*
X15432563Y-14241412D01*
M02*
